<svg width="20" height="20" viewBox="0 0 20 20" fill="none" xmlns="http://www.w3.org/2000/svg">
<path d="M7.85159 7.5304V8.82813C7.85159 9.15173 8.11393 9.41407 8.43752 9.41407H11.5625C11.8861 9.41407 12.1485 9.15173 12.1485 8.82813V7.57567C12.1485 6.90009 12.3764 6.24556 12.8076 5.68283C14.0958 4.00189 13.631 1.5442 11.7578 0.466118V2.59654C11.7578 2.92014 11.4955 3.18248 11.1719 3.18248C10.8483 3.18248 10.586 2.92014 10.586 2.59654V0.0479544C10.1979 -0.0162719 9.802 -0.0159816 9.41408 0.0488137V2.59654C9.41408 2.92014 9.15174 3.18248 8.82815 3.18248C8.50455 3.18248 8.24221 2.92014 8.24221 2.59654V0.471079C6.36749 1.55522 5.89811 4.01689 7.20663 5.7013C7.62253 6.23661 7.85159 6.88622 7.85159 7.5304ZM8.43752 10.5859V12.9297H7.65823C7.51953 12.9297 7.38532 12.9789 7.27949 13.0685C7.17366 13.1582 7.10306 13.2825 7.08026 13.4193L6.57593 16.4453H13.4241L12.9198 13.4193C12.897 13.2825 12.8264 13.1582 12.7205 13.0685C12.6147 12.9789 12.4805 12.9297 12.3418 12.9297H11.5625V10.5859H8.43752ZM4.72659 17.6172V19.4141C4.72659 19.7376 4.98894 20 5.31253 20H14.6875C15.0111 20 15.2734 19.7376 15.2734 19.4141V17.6172H4.72659Z" fill="#898B9E"/>
</svg>
