<svg width="20" height="20" viewBox="0 0 20 20" fill="none" xmlns="http://www.w3.org/2000/svg">
<path d="M10 10C10.8653 10 11.7112 9.74341 12.4306 9.26268C13.1501 8.78195 13.7108 8.09867 14.042 7.29924C14.3731 6.49982 14.4597 5.62015 14.2909 4.77148C14.1221 3.92281 13.7054 3.14326 13.0936 2.53141C12.4817 1.91956 11.7022 1.50288 10.8535 1.33407C10.0049 1.16526 9.12518 1.2519 8.32576 1.58303C7.52633 1.91416 6.84305 2.47492 6.36232 3.19438C5.88159 3.91385 5.625 4.75971 5.625 5.625C5.62632 6.78492 6.08768 7.89695 6.90787 8.71713C7.72805 9.53732 8.84008 9.99868 10 10ZM10 2.5C10.6181 2.5 11.2223 2.68328 11.7362 3.02666C12.2501 3.37004 12.6506 3.8581 12.8871 4.42912C13.1236 5.00014 13.1855 5.62847 13.065 6.23466C12.9444 6.84085 12.6467 7.39767 12.2097 7.83471C11.7727 8.27175 11.2158 8.56938 10.6097 8.68996C10.0035 8.81053 9.37513 8.74865 8.80411 8.51213C8.23309 8.2756 7.74504 7.87506 7.40166 7.36116C7.05828 6.84726 6.875 6.24307 6.875 5.625C6.87599 4.7965 7.20555 4.00223 7.79139 3.41639C8.37722 2.83055 9.1715 2.50099 10 2.5ZM17.7644 16.3313C17.227 14.6992 16.1859 13.2797 14.7907 12.2768C13.3955 11.2739 11.7182 10.7393 10 10.75C8.2818 10.7393 6.60449 11.2739 5.20931 12.2768C3.81413 13.2797 2.77298 14.6992 2.23562 16.3313C2.14573 16.6052 2.12282 16.8966 2.16882 17.1812C2.21482 17.4658 2.32839 17.7352 2.5 17.9669C2.67559 18.2087 2.90579 18.4057 3.17187 18.5418C3.43795 18.6778 3.73239 18.7492 4.03125 18.75H15.9687C16.2676 18.7492 16.562 18.6778 16.8281 18.5418C17.0942 18.4057 17.3244 18.2087 17.5 17.9669C17.6716 17.7352 17.7852 17.4658 17.8312 17.1812C17.8772 16.8966 17.8543 16.6052 17.7644 16.3313Z" fill="#898B9E"/>
</svg>
