<svg width="20" height="20" viewBox="0 0 20 20" fill="none" xmlns="http://www.w3.org/2000/svg">
<path d="M12.5 18.9583H4.16667C3.55901 18.9579 2.97638 18.7163 2.5467 18.2866C2.11703 17.857 1.87544 17.2743 1.875 16.6667V6.66667C1.87544 6.05901 2.11703 5.47638 2.5467 5.0467C2.97638 4.61703 3.55901 4.37544 4.16667 4.375H12.5C13.1077 4.37544 13.6903 4.61703 14.12 5.0467C14.5496 5.47638 14.7912 6.05901 14.7917 6.66667V16.6667C14.7912 17.2743 14.5496 17.857 14.12 18.2866C13.6903 18.7163 13.1077 18.9579 12.5 18.9583ZM4.16667 5.625C3.89054 5.62544 3.62584 5.73533 3.43058 5.93058C3.23533 6.12584 3.12544 6.39053 3.125 6.66667V16.6667C3.12544 16.9428 3.23533 17.2075 3.43058 17.4028C3.62584 17.598 3.89054 17.7079 4.16667 17.7083H12.5C12.7761 17.7079 13.0408 17.598 13.2361 17.4028C13.4313 17.2075 13.5412 16.9428 13.5417 16.6667V6.66667C13.5412 6.39053 13.4313 6.12584 13.2361 5.93058C13.0408 5.73533 12.7761 5.62544 12.5 5.625H4.16667Z" fill="#853C3C"/>
<path d="M15.8333 15.6251H14.1667C14.0009 15.6251 13.8419 15.5592 13.7247 15.442C13.6075 15.3248 13.5417 15.1658 13.5417 15.0001C13.5417 14.8343 13.6075 14.6754 13.7247 14.5581C13.8419 14.4409 14.0009 14.3751 14.1667 14.3751H15.8333C16.1095 14.3746 16.3742 14.2648 16.5694 14.0695C16.7647 13.8742 16.8746 13.6095 16.875 13.3334V3.33341C16.8746 3.05728 16.7647 2.79259 16.5694 2.59733C16.3742 2.40208 16.1095 2.29219 15.8333 2.29175H7.5C7.22386 2.29219 6.95917 2.40208 6.76391 2.59733C6.56866 2.79259 6.45877 3.05728 6.45833 3.33341V5.00008C6.45833 5.16584 6.39248 5.32481 6.27527 5.44202C6.15806 5.55923 5.99909 5.62508 5.83333 5.62508C5.66757 5.62508 5.5086 5.55923 5.39139 5.44202C5.27418 5.32481 5.20833 5.16584 5.20833 5.00008V3.33341C5.20877 2.72576 5.45035 2.14312 5.88003 1.71345C6.3097 1.28377 6.89234 1.04219 7.5 1.04175H15.8333C16.441 1.04219 17.0236 1.28377 17.4533 1.71345C17.883 2.14312 18.1246 2.72576 18.125 3.33341V13.3334C18.1246 13.9411 17.883 14.5237 17.4533 14.9534C17.0236 15.3831 16.441 15.6246 15.8333 15.6251Z" fill="#853C3C"/>
<path d="M8.33333 14.7917C8.16757 14.7917 8.0086 14.7259 7.89139 14.6087C7.77418 14.4915 7.70833 14.3325 7.70833 14.1667V9.16675C7.70833 9.00099 7.77418 8.84202 7.89139 8.72481C8.0086 8.6076 8.16757 8.54175 8.33333 8.54175C8.49909 8.54175 8.65806 8.6076 8.77527 8.72481C8.89248 8.84202 8.95833 9.00099 8.95833 9.16675V14.1667C8.95833 14.3325 8.89248 14.4915 8.77527 14.6087C8.65806 14.7259 8.49909 14.7917 8.33333 14.7917Z" fill="#853C3C"/>
<path d="M10.8333 12.2917H5.83333C5.66757 12.2917 5.5086 12.2259 5.39139 12.1087C5.27418 11.9915 5.20833 11.8325 5.20833 11.6667C5.20833 11.501 5.27418 11.342 5.39139 11.2248C5.5086 11.1076 5.66757 11.0417 5.83333 11.0417H10.8333C10.9991 11.0417 11.1581 11.1076 11.2753 11.2248C11.3925 11.342 11.4583 11.501 11.4583 11.6667C11.4583 11.8325 11.3925 11.9915 11.2753 12.1087C11.1581 12.2259 10.9991 12.2917 10.8333 12.2917Z" fill="#853C3C"/>
</svg>
