<svg width="18" height="18" viewBox="0 0 18 18" fill="none" xmlns="http://www.w3.org/2000/svg">
<path d="M17.0892 15.9109L12.5925 11.4142C13.5045 10.2494 14 8.8127 14 7.33335C14 3.65752 11.0092 0.666687 7.33333 0.666687C3.6575 0.666687 0.666664 3.65752 0.666664 7.33335C0.666664 11.0092 3.6575 14 7.33333 14C8.81252 14 10.2491 13.5048 11.4142 12.5934L15.9108 17.09C16.0672 17.2463 16.2792 17.334 16.5003 17.3339C16.7214 17.3339 16.9333 17.246 17.0896 17.0896C17.2458 16.9332 17.3336 16.7212 17.3335 16.5001C17.3334 16.2791 17.2455 16.0671 17.0892 15.9109ZM2.33333 7.33335C2.33333 4.57585 4.57583 2.33335 7.33333 2.33335C10.0908 2.33335 12.3333 4.57585 12.3333 7.33335C12.3333 10.0909 10.0908 12.3334 7.33333 12.3334C4.57583 12.3334 2.33333 10.0909 2.33333 7.33335Z" fill="#E0E0E0"/>
</svg>
