<svg width="30" height="30" viewBox="0 0 30 30" fill="none" xmlns="http://www.w3.org/2000/svg">
<path d="M15 0C6.717 0 0 6.717 0 15C0 23.283 6.717 30 15 30C23.283 30 30 23.283 30 15C30 6.717 23.283 0 15 0ZM15.3179 23.7334C15.3177 23.7334 15.3181 23.7334 15.3179 23.7334H15.3143C13.8116 23.7328 12.3351 23.356 11.0239 22.641L6.26472 23.8891L7.53845 19.2382C6.7527 17.8773 6.33934 16.3332 6.34003 14.7514C6.34209 9.80301 10.3695 5.77721 15.3179 5.77721C17.7193 5.77812 19.9736 6.71288 21.6685 8.40912C23.3636 10.1056 24.2965 12.3605 24.2956 14.7585C24.2935 19.7072 20.2657 23.7334 15.3179 23.7334Z" fill="#232538"/>
<path d="M15.3209 7.29297C11.2049 7.29297 7.85751 10.639 7.85568 14.752C7.85523 16.1615 8.24982 17.5341 8.99666 18.7217L9.17404 19.0039L8.42011 21.7567L11.2443 21.016L11.5169 21.1776C12.6624 21.8574 13.9758 22.217 15.3147 22.2174H15.3177C19.4305 22.2174 22.7779 18.8712 22.7797 14.7579C22.7804 12.7646 22.0049 10.8905 20.5962 9.48062C19.1874 8.07071 17.3138 7.29366 15.3209 7.29297ZM19.7099 17.9591C19.5229 18.4828 18.6269 18.9609 18.1959 19.0255C17.8093 19.0831 17.3204 19.1072 16.783 18.9366C16.4571 18.8332 16.0394 18.6952 15.504 18.4642C13.2539 17.4929 11.7842 15.2278 11.6721 15.0782C11.5599 14.9285 10.7561 13.8621 10.7561 12.7582C10.7561 11.6545 11.3356 11.1119 11.5411 10.8876C11.7469 10.663 11.99 10.6069 12.1394 10.6069C12.2889 10.6069 12.4386 10.6083 12.5693 10.6147C12.7071 10.6216 12.892 10.5623 13.074 10.9997C13.261 11.4488 13.7096 12.5524 13.7656 12.6646C13.8217 12.777 13.859 12.9079 13.7844 13.0576C13.7096 13.2073 13.461 13.5302 13.2236 13.8246C13.1241 13.9479 12.9943 14.0578 13.1252 14.2823C13.2559 14.5066 13.7064 15.2411 14.3731 15.8358C15.23 16.5998 15.9528 16.8364 16.1771 16.9488C16.4012 17.061 16.5321 17.0422 16.6631 16.8927C16.7937 16.743 17.2238 16.2379 17.3733 16.0134C17.5227 15.7888 17.6724 15.8264 17.878 15.9012C18.0837 15.9758 19.1865 16.5185 19.4108 16.6307C19.6351 16.743 19.7845 16.7991 19.8406 16.8927C19.8969 16.9863 19.8969 17.4352 19.7099 17.9591Z" fill="#232538"/>
</svg>
