<svg width="20" height="20" viewBox="0 0 20 20" fill="none" xmlns="http://www.w3.org/2000/svg">
<path fill-rule="evenodd" clip-rule="evenodd" d="M19 2.5C19 2.10218 18.842 1.72064 18.5607 1.43934C18.2794 1.15804 17.8978 1 17.5 1H2.5C2.10218 1 1.72064 1.15804 1.43934 1.43934C1.15804 1.72064 1 2.10218 1 2.5V17.5C1 17.8978 1.15804 18.2794 1.43934 18.5607C1.72064 18.842 2.10218 19 2.5 19H10V17H3.497C3.087 17 2.857 16.54 3.097 16.21L6.65 12.159C6.84 11.949 7.17 11.949 7.37 12.149L9 14L12.06 9.219C12.107 9.14987 12.1705 9.09363 12.2449 9.0554C12.3192 9.01717 12.4019 8.99818 12.4854 9.00017C12.569 9.00216 12.6507 9.02507 12.7231 9.06679C12.7956 9.10851 12.8564 9.16772 12.9 9.239L13.62 10.49C14.3714 10.1655 15.1815 9.99873 16 10H19V2.5ZM7.5 4.5C8.6 4.5 9.5 5.4 9.5 6.5C9.5 7.6 8.6 8.5 7.5 8.5C6.4 8.5 5.5 7.6 5.5 6.5C5.5 5.4 6.4 4.5 7.5 4.5Z" fill="#48713A"/>
<path d="M19.707 15.293C19.5195 15.1055 19.2652 15.0001 19 15H17V13C17 12.7348 16.8946 12.4804 16.7071 12.2929C16.5196 12.1054 16.2652 12 16 12C15.7348 12 15.4804 12.1054 15.2929 12.2929C15.1054 12.4804 15 12.7348 15 13V15H13C12.7348 15 12.4804 15.1054 12.2929 15.2929C12.1054 15.4804 12 15.7348 12 16C12 16.2652 12.1054 16.5196 12.2929 16.7071C12.4804 16.8946 12.7348 17 13 17H15V19C15 19.2652 15.1054 19.5196 15.2929 19.7071C15.4804 19.8946 15.7348 20 16 20C16.2652 20 16.5196 19.8946 16.7071 19.7071C16.8946 19.5196 17 19.2652 17 19V17H19C19.1978 17 19.391 16.9413 19.5555 16.8314C19.7199 16.7215 19.848 16.5654 19.9237 16.3827C19.9993 16.2 20.0192 15.9989 19.9806 15.805C19.942 15.611 19.8468 15.4329 19.707 15.293Z" fill="#48713A"/>
</svg>
