<svg width="112" height="33" viewBox="0 0 112 33" fill="none" xmlns="http://www.w3.org/2000/svg">
<path d="M111.381 28.4541C111.381 30.1682 109.964 31.5566 108.211 31.5566H4.45821C2.70596 31.5566 1.28366 30.1682 1.28366 28.4541V3.71334C1.28366 2.00013 2.70596 0.606873 4.45821 0.606873H108.21C109.964 0.606873 111.381 2.00013 111.381 3.71334L111.381 28.4541Z" fill="black"/>
<path d="M107.876 0.644261C109.786 0.644261 111.339 2.15896 111.339 4.02041V28.143C111.339 30.0044 109.786 31.5191 107.876 31.5191H4.78864C2.87946 31.5191 1.32592 30.0044 1.32592 28.143V4.02041C1.32592 2.15896 2.87946 0.644261 4.78864 0.644261H107.876ZM107.876 -1.14221e-05H4.78864C2.52174 -1.14221e-05 0.665131 1.81019 0.665131 4.02041V28.143C0.665131 30.3532 2.52174 32.1634 4.78864 32.1634H107.876C110.143 32.1634 112 30.3532 112 28.143V4.02041C112 1.81019 110.143 -1.14221e-05 107.876 -1.14221e-05Z" fill="#A6A6A6"/>
<path d="M25.5118 15.908C25.4879 13.3164 27.6882 12.0556 27.7888 11.9969C26.5427 10.2255 24.6112 9.98348 23.9325 9.96419C22.3103 9.79774 20.7368 10.9106 19.9104 10.9106C19.0676 10.9106 17.795 9.98027 16.4236 10.0076C14.6587 10.0341 13.0076 11.0304 12.1021 12.5775C10.2333 15.7319 11.6271 20.3674 13.4175 22.9172C14.3131 24.1659 15.3597 25.5602 16.7295 25.5112C18.0697 25.4573 18.5703 24.6781 20.1875 24.6781C21.7899 24.6781 22.26 25.5112 23.657 25.4798C25.0953 25.4573 26.0008 24.2254 26.8651 22.9654C27.9001 21.5342 28.3158 20.1246 28.3323 20.0522C28.2985 20.041 25.539 19.0142 25.5118 15.908Z" fill="white"/>
<path d="M22.8727 8.28687C23.5935 7.408 24.0867 6.21233 23.9498 4.99896C22.9065 5.04399 21.6019 5.70254 20.8506 6.5621C20.1859 7.31955 19.5921 8.56106 19.7455 9.72859C20.9174 9.81382 22.1206 9.15206 22.8727 8.28687Z" fill="white"/>
<path d="M44.9063 25.3319H43.0334L42.0075 22.1887H38.4415L37.4642 25.3319H35.6408L39.1738 14.6311H41.356L44.9063 25.3319ZM41.6982 20.87L40.7704 18.0758C40.6723 17.7904 40.4884 17.1181 40.2171 16.06H40.1841C40.076 16.5151 39.902 17.1873 39.6629 18.0758L38.7516 20.87H41.6982Z" fill="white"/>
<path d="M53.9921 21.379C53.9921 22.6913 53.6284 23.7286 52.901 24.49C52.2495 25.1679 51.4404 25.5064 50.4747 25.5064C49.4323 25.5064 48.6834 25.1414 48.2274 24.4112H48.1944V28.4759H46.4361V20.156C46.4361 19.331 46.4139 18.4843 46.371 17.6159H47.9173L48.0154 18.8389H48.0484C48.6348 17.9175 49.5246 17.4575 50.7188 17.4575C51.6524 17.4575 52.4317 17.8169 53.0552 18.5366C53.6803 19.2571 53.9921 20.2043 53.9921 21.379ZM52.2008 21.4418C52.2008 20.6907 52.0276 20.0716 51.6796 19.5843C51.2994 19.0761 50.7889 18.8221 50.1489 18.8221C49.7151 18.8221 49.3209 18.9636 48.9688 19.2426C48.6158 19.524 48.3849 19.8915 48.2769 20.3466C48.2224 20.5589 48.1952 20.7326 48.1952 20.8693V22.1558C48.1952 22.717 48.3717 23.1906 48.7247 23.5774C49.0776 23.9642 49.5362 24.1572 50.1003 24.1572C50.7625 24.1572 51.278 23.9079 51.6466 23.411C52.0161 22.9132 52.2008 22.2571 52.2008 21.4418Z" fill="white"/>
<path d="M63.0943 21.379C63.0943 22.6913 62.7306 23.7286 62.0024 24.49C61.3517 25.1679 60.5427 25.5064 59.577 25.5064C58.5345 25.5064 57.7857 25.1414 57.3305 24.4112H57.2975V28.4759H55.5392V20.156C55.5392 19.331 55.5169 18.4843 55.4741 17.6159H57.0204L57.1185 18.8389H57.1515C57.737 17.9175 58.6269 17.4575 59.8219 17.4575C60.7546 17.4575 61.534 17.8169 62.1591 18.5366C62.7818 19.2571 63.0943 20.2043 63.0943 21.379ZM61.3031 21.4418C61.3031 20.6907 61.129 20.0716 60.781 19.5843C60.4008 19.0761 59.892 18.8221 59.2512 18.8221C58.8166 18.8221 58.4232 18.9636 58.0702 19.2426C57.7173 19.524 57.4872 19.8915 57.3791 20.3466C57.3255 20.5589 57.2975 20.7326 57.2975 20.8693V22.1558C57.2975 22.717 57.474 23.1906 57.8253 23.5774C58.1783 23.9634 58.6368 24.1572 59.2025 24.1572C59.8648 24.1572 60.3802 23.9079 60.7489 23.411C61.1183 22.9132 61.3031 22.2571 61.3031 21.4418Z" fill="white"/>
<path d="M73.2712 22.331C73.2712 23.2412 72.947 23.9818 72.2964 24.5535C71.5813 25.1783 70.5859 25.4903 69.3068 25.4903C68.1258 25.4903 67.1791 25.2683 66.4624 24.8237L66.8698 23.3948C67.6417 23.8499 68.4887 24.0783 69.4115 24.0783C70.0738 24.0783 70.5892 23.932 70.9595 23.6409C71.3281 23.3498 71.5121 22.959 71.5121 22.4717C71.5121 22.0375 71.3603 21.6717 71.056 21.375C70.7533 21.0783 70.2478 20.8025 69.5418 20.5476C67.6203 19.8488 66.6603 18.8252 66.6603 17.4792C66.6603 16.5995 66.9968 15.8782 67.6706 15.317C68.3419 14.7549 69.2375 14.4743 70.3575 14.4743C71.3562 14.4743 72.1858 14.644 72.8481 14.9825L72.4085 16.38C71.79 16.0519 71.0906 15.8879 70.308 15.8879C69.6895 15.8879 69.2062 16.0366 68.8598 16.3325C68.567 16.5971 68.4202 16.9195 68.4202 17.3015C68.4202 17.7244 68.5877 18.0742 68.9241 18.3492C69.2169 18.6033 69.7488 18.8783 70.5208 19.175C71.4651 19.5457 72.1586 19.9791 72.6048 20.476C73.0493 20.9713 73.2712 21.5913 73.2712 22.331Z" fill="white"/>
<path d="M79.0845 18.9024H77.1464V22.6486C77.1464 23.6015 77.4878 24.0775 78.1723 24.0775C78.4865 24.0775 78.7471 24.051 78.9533 23.9979L79.002 25.2997C78.6556 25.4259 78.1995 25.4895 77.6346 25.4895C76.9402 25.4895 76.3976 25.2828 76.0058 24.8703C75.6158 24.457 75.4195 23.7639 75.4195 22.7902V18.9008H74.2649V17.6143H75.4195V16.2015L77.1464 15.6933V17.6143H79.0845V18.9024Z" fill="white"/>
<path d="M87.8288 21.4103C87.8288 22.5964 87.4807 23.5701 86.7863 24.3316C86.0581 25.1156 85.0916 25.5063 83.8867 25.5063C82.7255 25.5063 81.801 25.1308 81.1116 24.3798C80.4221 23.6288 80.0774 22.6808 80.0774 21.5382C80.0774 20.3425 80.432 19.3631 81.1437 18.6017C81.8538 17.8394 82.8121 17.4583 84.017 17.4583C85.1782 17.4583 86.1126 17.8338 86.8177 18.5856C87.4923 19.3149 87.8288 20.2565 87.8288 21.4103ZM86.0045 21.4658C86.0045 20.7542 85.8487 20.1439 85.5328 19.6349C85.1642 19.019 84.6372 18.7118 83.9543 18.7118C83.2475 18.7118 82.7107 19.0198 82.342 19.6349C82.0262 20.1447 81.8703 20.7646 81.8703 21.498C81.8703 22.2096 82.0262 22.8199 82.342 23.3281C82.7222 23.944 83.2533 24.2512 83.9386 24.2512C84.61 24.2512 85.1369 23.9376 85.5171 23.312C85.8412 22.7934 86.0045 22.1766 86.0045 21.4658Z" fill="white"/>
<path d="M93.544 19.1236C93.37 19.0922 93.1844 19.0761 92.9898 19.0761C92.3713 19.0761 91.8929 19.3037 91.5565 19.7596C91.2637 20.1617 91.1169 20.6698 91.1169 21.2834V25.3319H89.3594L89.3759 20.0459C89.3759 19.1566 89.3537 18.3468 89.31 17.6167H90.8414L90.9058 19.093H90.9544C91.14 18.5857 91.4328 18.1772 91.8336 17.8708C92.2253 17.595 92.6484 17.4575 93.1044 17.4575C93.2669 17.4575 93.4137 17.4688 93.544 17.4889V19.1236Z" fill="white"/>
<path d="M101.408 21.1088C101.408 21.416 101.387 21.6749 101.343 21.8864H96.0684C96.089 22.6486 96.3438 23.2316 96.8337 23.6336C97.2782 23.9931 97.853 24.1732 98.559 24.1732C99.34 24.1732 100.053 24.0518 100.693 23.8081L100.969 24.9982C100.22 25.3166 99.3359 25.475 98.3157 25.475C97.0885 25.475 96.1253 25.1228 95.4243 24.4192C94.725 23.7157 94.3745 22.7709 94.3745 21.5856C94.3745 20.4221 94.7002 19.4532 95.3526 18.6805C96.0354 17.8555 96.9582 17.443 98.1194 17.443C99.26 17.443 100.123 17.8555 100.71 18.6805C101.174 19.3358 101.408 20.1463 101.408 21.1088ZM99.7309 20.6642C99.7424 20.156 99.6278 19.7169 99.3895 19.3463C99.0851 18.8694 98.6175 18.6314 97.9883 18.6314C97.4135 18.6314 96.9459 18.8638 96.5888 19.3302C96.296 19.7009 96.122 20.1455 96.0684 20.6634H99.7309V20.6642Z" fill="white"/>
<path d="M41.1168 8.04808C41.1168 8.99449 40.8257 9.70691 40.2443 10.1853C39.7058 10.6268 38.9404 10.8479 37.9491 10.8479C37.4576 10.8479 37.037 10.827 36.6849 10.7852V5.61412C37.1442 5.54175 37.6391 5.50476 38.1735 5.50476C39.1178 5.50476 39.8295 5.70498 40.3094 6.10541C40.8472 6.55811 41.1168 7.2054 41.1168 8.04808ZM40.2055 8.0714C40.2055 7.45788 40.0389 6.98749 39.7058 6.65943C39.3726 6.33216 38.886 6.16813 38.2452 6.16813C37.9731 6.16813 37.7413 6.18582 37.5492 6.22281V10.154C37.6556 10.1701 37.8502 10.1773 38.1331 10.1773C38.7945 10.1773 39.305 9.99799 39.6645 9.63937C40.0241 9.28074 40.2055 8.75809 40.2055 8.0714Z" fill="white"/>
<path d="M45.9488 8.87465C45.9488 9.45762 45.7781 9.93524 45.4366 10.3099C45.0787 10.6951 44.6045 10.8873 44.0124 10.8873C43.4417 10.8873 42.9873 10.7031 42.6483 10.3333C42.3102 9.96419 42.1411 9.49862 42.1411 8.93737C42.1411 8.35039 42.3151 7.86874 42.6648 7.49485C43.0145 7.12095 43.4846 6.93359 44.0767 6.93359C44.6474 6.93359 45.1059 7.11773 45.4531 7.4868C45.783 7.84543 45.9488 8.30858 45.9488 8.87465ZM45.0523 8.90199C45.0523 8.55222 44.9748 8.25229 44.8206 8.00222C44.6391 7.69989 44.381 7.54872 44.0454 7.54872C43.6982 7.54872 43.4342 7.69989 43.2528 8.00222C43.0978 8.25229 43.0211 8.55704 43.0211 8.91727C43.0211 9.26705 43.0986 9.56697 43.2528 9.81704C43.44 10.1194 43.7006 10.2705 44.0371 10.2705C44.367 10.2705 44.6259 10.117 44.8123 9.809C44.9723 9.55411 45.0523 9.25177 45.0523 8.90199Z" fill="white"/>
<path d="M52.4276 7.0108L51.2112 10.8013H50.4195L49.9156 9.1553C49.7878 8.74441 49.6839 8.33594 49.603 7.93068H49.5874C49.5123 8.34719 49.4084 8.75486 49.2748 9.1553L48.7396 10.8013H47.9388L46.7949 7.0108H47.6831L48.1227 8.81276C48.2291 9.23892 48.3165 9.64499 48.3866 10.0293H48.4023C48.4666 9.71253 48.573 9.30888 48.7231 8.8208L49.2748 7.01161H49.9791L50.5077 8.7822C50.6356 9.214 50.7395 9.62971 50.8195 10.0301H50.8434C50.9019 9.64016 50.9902 9.22445 51.1073 8.7822L51.579 7.01161H52.4276V7.0108Z" fill="white"/>
<path d="M56.9082 10.8013H56.044V8.63025C56.044 7.96125 55.7833 7.62675 55.2605 7.62675C55.004 7.62675 54.797 7.71841 54.6362 7.90255C54.477 8.08668 54.3962 8.30379 54.3962 8.55225V10.8005H53.5319V8.09392C53.5319 7.76103 53.5212 7.4 53.5006 7.00921H54.2601L54.3005 7.60182H54.3245C54.4251 7.41769 54.5752 7.26571 54.7723 7.1443C55.0065 7.00278 55.2687 6.93121 55.5557 6.93121C55.9186 6.93121 56.2204 7.04539 56.4604 7.27456C56.759 7.55518 56.9082 7.97411 56.9082 8.53054V10.8013Z" fill="white"/>
<path d="M59.2916 10.8012H58.4282V5.27155H59.2916V10.8012Z" fill="white"/>
<path d="M64.38 8.87465C64.38 9.45762 64.2093 9.93524 63.8679 10.3099C63.51 10.6951 63.035 10.8873 62.4436 10.8873C61.8721 10.8873 61.4177 10.7031 61.0796 10.3333C60.7414 9.96419 60.5724 9.49862 60.5724 8.93737C60.5724 8.35039 60.7464 7.86874 61.0961 7.49485C61.4457 7.12095 61.9158 6.93359 62.5071 6.93359C63.0787 6.93359 63.5364 7.11773 63.8844 7.4868C64.2143 7.84543 64.38 8.30858 64.38 8.87465ZM63.4828 8.90199C63.4828 8.55222 63.4052 8.25229 63.251 8.00222C63.0704 7.69989 62.8115 7.54872 62.4766 7.54872C62.1286 7.54872 61.8647 7.69989 61.6841 8.00222C61.529 8.25229 61.4523 8.55704 61.4523 8.91727C61.4523 9.26705 61.5299 9.56697 61.6841 9.81704C61.8713 10.1194 62.1319 10.2705 62.4684 10.2705C62.7983 10.2705 63.0564 10.117 63.2428 9.809C63.4036 9.55411 63.4828 9.25177 63.4828 8.90199Z" fill="white"/>
<path d="M68.5629 10.8012H67.7869L67.7225 10.3646H67.6986C67.4331 10.7128 67.0545 10.8873 66.563 10.8873C66.196 10.8873 65.8991 10.7723 65.6756 10.5439C65.4727 10.3365 65.3713 10.0784 65.3713 9.77201C65.3713 9.30886 65.5692 8.95587 65.9676 8.71143C66.3651 8.46698 66.9242 8.34717 67.6442 8.3528V8.28204C67.6442 7.78271 67.3753 7.53344 66.8368 7.53344C66.4533 7.53344 66.1152 7.62752 65.8232 7.81407L65.6476 7.26086C66.0088 7.04295 66.455 6.93359 66.9811 6.93359C67.9972 6.93359 68.5068 7.45625 68.5068 8.50156V9.89745C68.5068 10.2762 68.5258 10.5777 68.5629 10.8012ZM67.6656 9.49862V8.91406C66.7123 8.89797 66.2356 9.15287 66.2356 9.67794C66.2356 9.87574 66.29 10.0237 66.4014 10.1226C66.5127 10.2215 66.6545 10.2705 66.8236 10.2705C67.0133 10.2705 67.1906 10.2118 67.3522 10.0953C67.5147 9.97786 67.6145 9.8291 67.6516 9.64658C67.6607 9.60557 67.6656 9.55571 67.6656 9.49862Z" fill="white"/>
<path d="M73.474 10.8012H72.7071L72.6666 10.1925H72.6427C72.3978 10.6557 71.9805 10.8873 71.3941 10.8873C70.9257 10.8873 70.5356 10.708 70.2264 10.3493C69.9171 9.99072 69.7629 9.52516 69.7629 8.95345C69.7629 8.33993 69.9303 7.84301 70.2668 7.46348C70.5925 7.10968 70.9917 6.93278 71.4667 6.93278C71.9887 6.93278 72.3541 7.10406 72.5619 7.4474H72.5784V5.27155H73.4435V9.78005C73.4435 10.1491 73.4534 10.4893 73.474 10.8012ZM72.5784 9.20272V8.57071C72.5784 8.46135 72.5702 8.3729 72.5545 8.30536C72.5058 8.10273 72.4011 7.93226 72.2419 7.79476C72.0811 7.65727 71.8873 7.58811 71.6638 7.58811C71.3414 7.58811 71.089 7.71275 70.9034 7.96282C70.7195 8.21289 70.6263 8.53211 70.6263 8.92209C70.6263 9.2968 70.7146 9.60074 70.8919 9.83473C71.0791 10.084 71.3315 10.2086 71.6473 10.2086C71.931 10.2086 72.1578 10.1049 72.3302 9.89664C72.4968 9.70447 72.5784 9.47289 72.5784 9.20272Z" fill="white"/>
<path d="M80.8658 8.87465C80.8658 9.45762 80.6951 9.93524 80.3537 10.3099C79.9958 10.6951 79.5224 10.8873 78.9294 10.8873C78.3596 10.8873 77.9052 10.7031 77.5654 10.3333C77.2273 9.96419 77.0582 9.49862 77.0582 8.93737C77.0582 8.35039 77.2322 7.86874 77.5819 7.49485C77.9316 7.12095 78.4016 6.93359 78.9946 6.93359C79.5645 6.93359 80.0238 7.11773 80.3702 7.4868C80.7001 7.84543 80.8658 8.30858 80.8658 8.87465ZM79.9702 8.90199C79.9702 8.55222 79.8927 8.25229 79.7385 8.00222C79.5562 7.69989 79.2989 7.54872 78.9624 7.54872C78.6161 7.54872 78.3522 7.69989 78.1699 8.00222C78.0149 8.25229 77.9382 8.55704 77.9382 8.91727C77.9382 9.26705 78.0157 9.56697 78.1699 9.81704C78.3571 10.1194 78.6177 10.2705 78.9542 10.2705C79.2841 10.2705 79.5439 10.117 79.7302 9.809C79.8894 9.55411 79.9702 9.25177 79.9702 8.90199Z" fill="white"/>
<path d="M85.513 10.8013H84.6496V8.63025C84.6496 7.96125 84.389 7.62675 83.8653 7.62675C83.6088 7.62675 83.4018 7.71841 83.2418 7.90255C83.0818 8.08668 83.0018 8.30379 83.0018 8.55225V10.8005H82.1367V8.09392C82.1367 7.76103 82.1268 7.4 82.1062 7.00921H82.8649L82.9053 7.60182H82.9293C83.0307 7.41769 83.1808 7.26571 83.3771 7.1443C83.6121 7.00278 83.8735 6.93121 84.1614 6.93121C84.5234 6.93121 84.8252 7.04539 85.0652 7.27456C85.3646 7.55518 85.513 7.97411 85.513 8.53054V10.8013Z" fill="white"/>
<path d="M91.3297 7.64204H90.378V9.48339C90.378 9.95137 90.547 10.1854 90.8818 10.1854C91.0369 10.1854 91.1655 10.1725 91.267 10.146L91.2893 10.7852C91.1185 10.8479 90.8942 10.8793 90.6179 10.8793C90.2765 10.8793 90.011 10.778 89.8188 10.5753C89.6258 10.3727 89.5302 10.0318 89.5302 9.55335V7.64204H88.9619V7.01083H89.5302V6.3161L90.3771 6.06683V7.01003H91.3288V7.64204H91.3297Z" fill="white"/>
<path d="M95.9051 10.8012H95.04V8.64629C95.04 7.96684 94.7794 7.62671 94.2574 7.62671C93.8566 7.62671 93.5828 7.82371 93.4327 8.21771C93.4071 8.30053 93.3922 8.40185 93.3922 8.52085V10.8004H92.5288V5.27155H93.3922V7.55595H93.4087C93.6809 7.14024 94.071 6.93278 94.5765 6.93278C94.9344 6.93278 95.2305 7.04696 95.4656 7.27613C95.7583 7.56158 95.9051 7.98614 95.9051 8.54739V10.8012Z" fill="white"/>
<path d="M100.625 8.72674C100.625 8.87791 100.613 9.00495 100.593 9.10868H98.0007C98.0122 9.48338 98.1359 9.76883 98.3759 9.96664C98.5953 10.1435 98.8782 10.232 99.2245 10.232C99.608 10.232 99.9577 10.1725 100.273 10.0527L100.408 10.638C100.039 10.794 99.6055 10.872 99.1033 10.872C98.5013 10.872 98.0271 10.6992 97.684 10.3534C97.3393 10.0076 97.1685 9.54369 97.1685 8.96153C97.1685 8.38983 97.3277 7.91381 97.6485 7.53428C97.9834 7.12902 98.4361 6.92639 99.0076 6.92639C99.5668 6.92639 99.9915 7.12902 100.279 7.53428C100.51 7.85591 100.625 8.25394 100.625 8.72674ZM99.8002 8.50883C99.8068 8.25876 99.7499 8.04327 99.6328 7.86154C99.4827 7.62755 99.2542 7.51016 98.945 7.51016C98.6629 7.51016 98.4328 7.62434 98.2572 7.8535C98.1137 8.03603 98.0287 8.25394 98.0007 8.50883H99.8002Z" fill="white"/>
</svg>
