<svg width="42" height="42" viewBox="0 0 42 42" fill="none" xmlns="http://www.w3.org/2000/svg">
<g clip-path="url(#clip0_521_476)">
<path d="M39.8139 18.4528L36.4401 16.9122L33.4622 12.1614C32.6016 10.7843 31.0868 9.9495 29.4602 9.9581H16.7741C15.3024 9.9581 13.9082 10.638 13.0131 11.8085L9.16596 16.8433L2.75409 18.5991C1.12746 19.0466 0 20.5355 0 22.2224V24.6753C0 26.7495 1.65246 28.4622 3.72663 28.4622H4.27745C4.94015 31.0183 7.54793 32.5503 10.1041 31.8876C11.7824 31.4486 13.0992 30.1404 13.5295 28.4622H27.9885C28.6512 31.0183 31.2589 32.5503 33.8151 31.8876C35.4934 31.4486 36.8102 30.1404 37.2405 28.4622H38.2733C40.3475 28.4622 41.9999 26.7495 41.9999 24.6753V21.8782C42.0085 20.4064 41.1479 19.0638 39.8139 18.4528ZM8.89916 30.304C7.21228 30.304 5.84384 28.9355 5.84384 27.2486C5.84384 25.5618 7.21228 24.1933 8.89916 24.1933C10.586 24.1933 11.9545 25.5618 11.9545 27.2486C11.9631 28.9269 10.5946 30.2954 8.89916 30.304ZM32.6102 30.304C30.9233 30.304 29.5549 28.9355 29.5549 27.2486C29.5549 25.5618 30.9233 24.1933 32.6102 24.1933C34.2971 24.1933 35.6655 25.5618 35.6655 27.2486C35.6741 28.9269 34.3057 30.2954 32.6102 30.304ZM38.2733 26.7409H37.361C37.077 24.1159 34.7102 22.2224 32.0852 22.515C29.8561 22.756 28.1004 24.5204 27.8594 26.7409H13.65C13.366 24.1159 10.9992 22.2224 8.37416 22.515C6.14507 22.756 4.38933 24.5204 4.14835 26.7409H3.71802C2.59057 26.7409 1.7127 25.8027 1.7127 24.6753V22.2224C1.70409 21.3015 2.31516 20.5011 3.20163 20.2515L9.90613 18.4183C10.0869 18.3667 10.2504 18.2634 10.3623 18.1085L14.3729 12.8499C14.9496 12.1097 15.836 11.6794 16.7741 11.6794H29.4602C30.493 11.6708 31.4655 12.1958 32.0077 13.0737L35.1233 18.0483C35.2094 18.1946 35.3471 18.3064 35.4934 18.3753L39.0909 20.0191C39.8139 20.3548 40.2786 21.0778 40.27 21.8782V24.6753H40.2786C40.2786 25.8027 39.4007 26.7409 38.2733 26.7409Z" fill="#31344B"/>
</g>
<defs>
<clipPath id="clip0_521_476">
<rect width="42" height="42" fill="white"/>
</clipPath>
</defs>
</svg>
