<svg width="20" height="18" viewBox="0 0 20 18" fill="none" xmlns="http://www.w3.org/2000/svg">
<path fill-rule="evenodd" clip-rule="evenodd" d="M0 9.60303C0 9.0726 0.210714 8.56389 0.585786 8.18882C0.960859 7.81375 1.46957 7.60303 2 7.60303H18C18.5304 7.60303 19.0391 7.81375 19.4142 8.18882C19.7893 8.56389 20 9.0726 20 9.60303V12.497C20 13.0275 19.7893 13.5362 19.4142 13.9112C19.0391 14.2863 18.5304 14.497 18 14.497H2C1.46957 14.497 0.960859 14.2863 0.585786 13.9112C0.210714 13.5362 0 13.0275 0 12.497V9.60303ZM5 11.05C5 11.866 4.328 12.527 3.5 12.527C2.672 12.527 2 11.866 2 11.05C2 10.234 2.672 9.57304 3.5 9.57304C4.328 9.57304 5 10.234 5 11.05ZM16.5 12.527C17.328 12.527 18 11.866 18 11.05C18 10.234 17.328 9.57304 16.5 9.57304C15.672 9.57304 15 10.234 15 11.05C15 11.866 15.672 12.527 16.5 12.527ZM15 16.002V16.5C15 16.8979 15.158 17.2794 15.4393 17.5607C15.7206 17.842 16.1022 18 16.5 18C16.8978 18 17.2794 17.842 17.5607 17.5607C17.842 17.2794 18 16.8979 18 16.5V16.002H15ZM2 16.002V16.5C2 16.8979 2.15804 17.2794 2.43934 17.5607C2.72064 17.842 3.10218 18 3.5 18C3.89782 18 4.27936 17.842 4.56066 17.5607C4.84196 17.2794 5 16.8979 5 16.5V16.002H2ZM6.285 0.686035C5.075 0.686035 3.98 1.27404 3.503 2.18204L1.524 5.94804C1.49257 6.00794 1.46744 6.07095 1.449 6.13603C1.624 6.08603 1.809 6.05904 2 6.05904H3.662L5.358 2.83104C5.517 2.52904 5.882 2.33304 6.285 2.33304H13.715C14.118 2.33304 14.483 2.52904 14.642 2.83104L16.338 6.05904H18C18.191 6.05904 18.376 6.08603 18.55 6.13603C18.5318 6.071 18.5071 6.008 18.476 5.94804L16.497 2.18304C16.02 1.27604 14.926 0.687035 13.715 0.687035L6.285 0.686035Z" fill="#61657E"/>
</svg>
