<svg width="20" height="20" viewBox="0 0 20 20" fill="none" xmlns="http://www.w3.org/2000/svg">
<g clip-path="url(#clip0_486_1445)">
<mask id="mask0_486_1445" style="mask-type:luminance" maskUnits="userSpaceOnUse" x="0" y="0" width="20" height="20">
<path d="M0 0H20V20H0V0Z" fill="white"/>
</mask>
<g mask="url(#mask0_486_1445)">
<path d="M4.16667 12.0833C4.05616 12.0833 3.95018 12.0394 3.87204 11.9613C3.7939 11.8831 3.75 11.7771 3.75 11.6666V8.33329C3.75 8.22279 3.7939 8.1168 3.87204 8.03866C3.95018 7.96052 4.05616 7.91663 4.16667 7.91663H5.83333C5.94384 7.91663 6.04982 7.96052 6.12796 8.03866C6.2061 8.1168 6.25 8.22279 6.25 8.33329C6.25 8.4438 6.2061 8.54978 6.12796 8.62792C6.04982 8.70606 5.94384 8.74996 5.83333 8.74996H4.58333V11.6666C4.58333 11.7771 4.53943 11.8831 4.46129 11.9613C4.38315 12.0394 4.27717 12.0833 4.16667 12.0833Z" fill="#898B9E"/>
<path d="M5 10.4166H4.16667C4.05616 10.4166 3.95018 10.3727 3.87204 10.2945C3.7939 10.2164 3.75 10.1104 3.75 9.99992C3.75 9.88941 3.7939 9.78343 3.87204 9.70529C3.95018 9.62715 4.05616 9.58325 4.16667 9.58325H5C5.11051 9.58325 5.21649 9.62715 5.29463 9.70529C5.37277 9.78343 5.41667 9.88941 5.41667 9.99992C5.41667 10.1104 5.37277 10.2164 5.29463 10.2945C5.21649 10.3727 5.11051 10.4166 5 10.4166Z" fill="#898B9E"/>
<path d="M10 19.5833C4.71583 19.5833 0.416664 15.2841 0.416664 9.99996C0.416664 4.71579 4.71583 0.416626 10 0.416626C15.2842 0.416626 19.5833 4.71579 19.5833 9.99996C19.5833 15.2841 15.2842 19.5833 10 19.5833ZM10 1.24996C5.175 1.24996 1.25 5.17496 1.25 9.99996C1.25 14.825 5.175 18.75 10 18.75C14.825 18.75 18.75 14.825 18.75 9.99996C18.75 5.17496 14.825 1.24996 10 1.24996Z" fill="#898B9E"/>
<path d="M15.1992 6.24996C15.1368 6.24997 15.0752 6.23597 15.0189 6.209C14.9627 6.18203 14.9132 6.14277 14.8742 6.09413C13.6792 4.60413 11.9025 3.74996 10 3.74996C8.0975 3.74996 6.32083 4.60413 5.125 6.09413C5.09152 6.13899 5.04935 6.17664 5.001 6.20484C4.95265 6.23304 4.89911 6.25121 4.84358 6.25827C4.78806 6.26533 4.73168 6.26112 4.67781 6.24591C4.62394 6.23069 4.57369 6.20478 4.53006 6.16972C4.48643 6.13466 4.45031 6.09116 4.42386 6.04183C4.39741 5.9925 4.38117 5.93835 4.3761 5.88261C4.37104 5.82686 4.37726 5.77067 4.3944 5.71738C4.41153 5.6641 4.43923 5.61481 4.47583 5.57246C5.83 3.88496 7.84333 2.91663 10 2.91663C12.1567 2.91663 14.17 3.88496 15.5242 5.57246C15.5733 5.63372 15.6042 5.70762 15.6132 5.78566C15.6222 5.8637 15.6089 5.94268 15.5749 6.01351C15.5409 6.08433 15.4876 6.14411 15.4212 6.18595C15.3547 6.22778 15.2777 6.24997 15.1992 6.24996ZM10 17.0833C9.03806 17.0861 8.08583 16.8911 7.20246 16.5103C6.31909 16.1296 5.52346 15.5712 4.865 14.87C4.78897 14.7898 4.74788 14.6828 4.75077 14.5724C4.75366 14.462 4.8003 14.3572 4.88041 14.2812C4.96053 14.2052 5.06757 14.1641 5.17798 14.167C5.28839 14.1699 5.39313 14.2165 5.46916 14.2966C6.66416 15.5558 8.27333 16.25 10 16.25C11.7267 16.25 13.3358 15.5558 14.5317 14.2966C14.6086 14.2206 14.7121 14.1774 14.8203 14.1764C14.9285 14.1753 15.0329 14.2163 15.1114 14.2908C15.1898 14.3652 15.2363 14.4673 15.2408 14.5754C15.2454 14.6835 15.2077 14.7891 15.1358 14.87C14.4771 15.5711 13.6814 16.1295 12.7979 16.5102C11.9144 16.891 10.962 17.086 10 17.0833ZM9.16666 12.0833C9.05612 12.0833 8.95006 12.0396 8.87166 11.9616L7.91666 11.0058V11.6666C7.91666 11.7771 7.87276 11.8831 7.79462 11.9613C7.71648 12.0394 7.6105 12.0833 7.5 12.0833C7.38949 12.0833 7.28351 12.0394 7.20537 11.9613C7.12723 11.8831 7.08333 11.7771 7.08333 11.6666V8.33329C7.08333 8.22279 7.12723 8.1168 7.20537 8.03866C7.28351 7.96052 7.38949 7.91663 7.5 7.91663H8.33333C9.0225 7.91663 9.58333 8.47746 9.58333 9.16663C9.58333 9.80079 9.10833 10.3266 8.495 10.4058L9.46083 11.3716C9.5192 11.4299 9.55899 11.5041 9.57515 11.5849C9.59132 11.6658 9.58314 11.7496 9.55164 11.8258C9.52015 11.902 9.46676 11.9671 9.39823 12.013C9.3297 12.0588 9.24911 12.0833 9.16666 12.0833ZM7.91666 9.58329H8.33333C8.44384 9.58329 8.54982 9.53939 8.62796 9.46125C8.7061 9.38311 8.75 9.27713 8.75 9.16663C8.75 9.05612 8.7061 8.95014 8.62796 8.872C8.54982 8.79386 8.44384 8.74996 8.33333 8.74996H7.91666V9.58329ZM12.5 12.0833H10.8333C10.7228 12.0833 10.6168 12.0394 10.5387 11.9613C10.4606 11.8831 10.4167 11.7771 10.4167 11.6666V8.33329C10.4167 8.22279 10.4606 8.1168 10.5387 8.03866C10.6168 7.96052 10.7228 7.91663 10.8333 7.91663H12.5C12.6105 7.91663 12.7165 7.96052 12.7946 8.03866C12.8728 8.1168 12.9167 8.22279 12.9167 8.33329C12.9167 8.4438 12.8728 8.54978 12.7946 8.62792C12.7165 8.70606 12.6105 8.74996 12.5 8.74996H11.25V11.25H12.5C12.6105 11.25 12.7165 11.2939 12.7946 11.372C12.8728 11.4501 12.9167 11.5561 12.9167 11.6666C12.9167 11.7771 12.8728 11.8831 12.7946 11.9613C12.7165 12.0394 12.6105 12.0833 12.5 12.0833Z" fill="#898B9E"/>
<path d="M11.6667 10.4166H10.8333C10.7228 10.4166 10.6168 10.3727 10.5387 10.2946C10.4606 10.2164 10.4167 10.1105 10.4167 9.99996C10.4167 9.88945 10.4606 9.78347 10.5387 9.70533C10.6168 9.62719 10.7228 9.58329 10.8333 9.58329H11.6667C11.7772 9.58329 11.8831 9.62719 11.9613 9.70533C12.0394 9.78347 12.0833 9.88945 12.0833 9.99996C12.0833 10.1105 12.0394 10.2164 11.9613 10.2946C11.8831 10.3727 11.7772 10.4166 11.6667 10.4166ZM15.8333 12.0833H14.1667C14.0561 12.0833 13.9502 12.0394 13.872 11.9613C13.7939 11.8831 13.75 11.7771 13.75 11.6666V8.33329C13.75 8.22279 13.7939 8.1168 13.872 8.03866C13.9502 7.96052 14.0561 7.91663 14.1667 7.91663H15.8333C15.9438 7.91663 16.0498 7.96052 16.128 8.03866C16.2061 8.1168 16.25 8.22279 16.25 8.33329C16.25 8.4438 16.2061 8.54978 16.128 8.62792C16.0498 8.70606 15.9438 8.74996 15.8333 8.74996H14.5833V11.25H15.8333C15.9438 11.25 16.0498 11.2939 16.128 11.372C16.2061 11.4501 16.25 11.5561 16.25 11.6666C16.25 11.7771 16.2061 11.8831 16.128 11.9613C16.0498 12.0394 15.9438 12.0833 15.8333 12.0833Z" fill="#898B9E"/>
<path d="M15 10.4166H14.1667C14.0562 10.4166 13.9502 10.3727 13.872 10.2945C13.7939 10.2164 13.75 10.1104 13.75 9.99992C13.75 9.88941 13.7939 9.78343 13.872 9.70529C13.9502 9.62715 14.0562 9.58325 14.1667 9.58325H15C15.1105 9.58325 15.2165 9.62715 15.2946 9.70529C15.3728 9.78343 15.4167 9.88941 15.4167 9.99992C15.4167 10.1104 15.3728 10.2164 15.2946 10.2945C15.2165 10.3727 15.1105 10.4166 15 10.4166Z" fill="#898B9E"/>
</g>
</g>
<defs>
<clipPath id="clip0_486_1445">
<rect width="20" height="20" fill="white"/>
</clipPath>
</defs>
</svg>
