<svg width="32" height="32" viewBox="0 0 32 32" fill="none" xmlns="http://www.w3.org/2000/svg">
<path d="M5.33331 9.33333C5.33331 8.97971 5.47379 8.64057 5.72384 8.39052C5.97389 8.14048 6.31302 8 6.66665 8H25.3333C25.6869 8 26.0261 8.14048 26.2761 8.39052C26.5262 8.64057 26.6666 8.97971 26.6666 9.33333C26.6666 9.68696 26.5262 10.0261 26.2761 10.2761C26.0261 10.5262 25.6869 10.6667 25.3333 10.6667H6.66665C6.31302 10.6667 5.97389 10.5262 5.72384 10.2761C5.47379 10.0261 5.33331 9.68696 5.33331 9.33333ZM7.99998 16C7.99998 15.6464 8.14046 15.3072 8.3905 15.0572C8.64055 14.8071 8.97969 14.6667 9.33331 14.6667H22.6666C23.0203 14.6667 23.3594 14.8071 23.6095 15.0572C23.8595 15.3072 24 15.6464 24 16C24 16.3536 23.8595 16.6928 23.6095 16.9428C23.3594 17.1929 23.0203 17.3333 22.6666 17.3333H9.33331C8.97969 17.3333 8.64055 17.1929 8.3905 16.9428C8.14046 16.6928 7.99998 16.3536 7.99998 16ZM10.6666 22.6667C10.6666 22.313 10.8071 21.9739 11.0572 21.7239C11.3072 21.4738 11.6464 21.3333 12 21.3333H20C20.3536 21.3333 20.6927 21.4738 20.9428 21.7239C21.1928 21.9739 21.3333 22.313 21.3333 22.6667C21.3333 23.0203 21.1928 23.3594 20.9428 23.6095C20.6927 23.8595 20.3536 24 20 24H12C11.6464 24 11.3072 23.8595 11.0572 23.6095C10.8071 23.3594 10.6666 23.0203 10.6666 22.6667Z" fill="white"/>
</svg>
