<svg width="22" height="20" viewBox="0 0 22 20" fill="none" xmlns="http://www.w3.org/2000/svg">
<path d="M11 20C10.6868 20 10.3849 19.884 10.1495 19.6734C9.26075 18.8793 8.40391 18.1331 7.64792 17.4749L7.64405 17.4714C5.42764 15.5415 3.51368 13.8747 2.182 12.2329C0.693387 10.3974 0 8.65708 0 6.7559C0 4.90876 0.619867 3.20463 1.74526 1.95725C2.88411 0.695124 4.44675 0 6.14586 0C7.4158 0 8.5788 0.41026 9.60253 1.21928C10.1191 1.6276 10.5874 2.12739 11 2.71033C11.4127 2.12739 11.8809 1.6276 12.3976 1.21928C13.4214 0.41026 14.5844 0 15.8543 0C17.5532 0 19.1161 0.695124 20.2549 1.95725C21.3803 3.20463 22 4.90876 22 6.7559C22 8.65704 21.3068 10.3974 19.8182 12.2327C18.4864 13.8747 16.5727 15.5413 14.3566 17.4711C13.5993 18.1304 12.7411 18.8778 11.8503 19.6738C11.6149 19.8842 11.3127 20.0001 11 20ZM6.14586 1.31684C4.811 1.31684 3.58471 1.86123 2.69259 2.84978C1.78724 3.8533 1.28855 5.24047 1.28855 6.7559C1.28855 8.35488 1.87013 9.7849 3.17414 11.3927C4.4345 12.9467 6.30919 14.5791 8.4798 16.4693L8.48379 16.4727C9.24262 17.1335 10.1029 17.8827 10.9982 18.6826C11.8988 17.8812 12.7604 17.1308 13.5207 16.469C15.6912 14.5788 17.5657 12.9467 18.826 11.3927C20.1299 9.7849 20.7115 8.35488 20.7115 6.7559C20.7115 5.24043 20.2128 3.85326 19.3074 2.84978C18.4155 1.86123 17.189 1.31684 15.8543 1.31684C14.8764 1.31684 13.9786 1.6345 13.1859 2.26082C12.4794 2.81926 11.9873 3.52519 11.6987 4.01913C11.5504 4.27313 11.2892 4.42474 11 4.42474C10.7108 4.42474 10.4496 4.27313 10.3012 4.01913C10.0129 3.52519 9.52076 2.81926 8.81409 2.26082C8.02141 1.6345 7.12357 1.31684 6.14586 1.31684Z" fill="black"/>
</svg>
