<svg width="32" height="29" viewBox="0 0 32 29" fill="none" xmlns="http://www.w3.org/2000/svg">
<g clip-path="url(#clip0_458_1522)">
<path d="M16 28.4697C15.5443 28.4697 15.1052 28.3047 14.7629 28.0049C13.4702 26.8745 12.2239 25.8123 11.1242 24.8752L11.1186 24.8704C7.89473 22.1231 5.1108 19.7505 3.17381 17.4133C1.00856 14.8006 0 12.3232 0 9.61694C0 6.98756 0.901623 4.56175 2.53856 2.78612C4.19505 0.9895 6.46799 0 8.93942 0C10.7866 0 12.4782 0.584 13.9673 1.73563C14.7187 2.31687 15.3998 3.02831 16 3.85812C16.6003 3.02831 17.2812 2.31687 18.0329 1.73563C19.522 0.584 21.2136 0 23.0608 0C25.532 0 27.8051 0.9895 29.4616 2.78612C31.0986 4.56175 31.9999 6.98756 31.9999 9.61694C31.9999 12.3232 30.9916 14.8006 28.8264 17.4131C26.8893 19.7505 24.1056 22.1228 20.8823 24.8699C19.7807 25.8084 18.5325 26.8723 17.2368 28.0054C16.8944 28.3049 16.4549 28.4699 16 28.4697ZM8.93942 1.8745C6.9978 1.8745 5.21412 2.64944 3.91649 4.05662C2.59962 5.48513 1.87425 7.45975 1.87425 9.61694C1.87425 11.8931 2.72018 13.9287 4.61693 16.2173C6.45018 18.4294 9.17698 20.7532 12.3342 23.4439L12.34 23.4487C13.4438 24.3894 14.695 25.4558 15.9973 26.5945C17.3073 25.4536 18.5605 24.3855 19.6665 23.4434C22.8235 20.7527 25.55 18.4294 27.3833 16.2173C29.2798 13.9287 30.1257 11.8931 30.1257 9.61694C30.1257 7.45969 29.4003 5.48506 28.0834 4.05662C26.7861 2.64944 25.0022 1.8745 23.0608 1.8745C21.6384 1.8745 20.3325 2.32669 19.1794 3.21825C18.1518 4.01319 17.436 5.01806 17.0163 5.72119C16.8005 6.08275 16.4207 6.29856 16 6.29856C15.5793 6.29856 15.1994 6.08275 14.9836 5.72119C14.5642 5.01806 13.8483 4.01319 12.8205 3.21825C11.6675 2.32669 10.3615 1.8745 8.93942 1.8745Z" fill="black"/>
</g>
<defs>
<clipPath id="clip0_458_1522">
<rect width="31.9999" height="28.4697" fill="white"/>
</clipPath>
</defs>
</svg>
