<svg width="112" height="33" viewBox="0 0 112 33" fill="none" xmlns="http://www.w3.org/2000/svg">
<path d="M107.064 33H4.11785C1.85406 33 0 31.1898 0 28.9796V4.85702C0 2.64679 1.85406 0.836597 4.11785 0.836597H107.064C109.328 0.836597 111.182 2.64679 111.182 4.85702V28.9796C111.182 31.1898 109.328 33 107.064 33Z" fill="black"/>
<path d="M107.064 1.48087C108.971 1.48087 110.522 2.99557 110.522 4.85702V28.9796C110.522 30.841 108.971 32.3557 107.064 32.3557H4.11785C2.21128 32.3557 0.659885 30.841 0.659885 28.9796V4.85702C0.659885 2.99557 2.21128 1.48087 4.11785 1.48087H107.064ZM107.064 0.836597H4.11785C1.85406 0.836597 0 2.64679 0 4.85702V28.9796C0 31.1898 1.85406 33 4.11785 33H107.064C109.328 33 111.182 31.1898 111.182 28.9796V4.85702C111.182 2.64679 109.328 0.836597 107.064 0.836597Z" fill="#A6A6A6"/>
<path d="M39.0516 9.07343C39.0516 9.74484 38.8457 10.2826 38.4401 10.6836C37.9737 11.159 37.3664 11.3982 36.6221 11.3982C35.9107 11.3982 35.3033 11.155 34.8051 10.6756C34.3058 10.1891 34.0566 9.59207 34.0566 8.87743C34.0566 8.1628 34.3058 7.56577 34.8051 7.08332C35.3033 6.59986 35.9107 6.35663 36.6221 6.35663C36.9762 6.35663 37.3139 6.42799 37.6361 6.56067C37.9573 6.69434 38.2188 6.87526 38.4082 7.0984L37.9779 7.52255C37.6474 7.14162 37.1975 6.95366 36.6221 6.95366C36.1032 6.95366 35.6533 7.13056 35.2714 7.48737C34.8936 7.84519 34.7042 8.30854 34.7042 8.87743C34.7042 9.44632 34.8936 9.9137 35.2714 10.2715C35.6533 10.6243 36.1032 10.8052 36.6221 10.8052C37.1728 10.8052 37.6361 10.6243 38.0015 10.2675C38.2424 10.0313 38.3794 9.70564 38.4154 9.28953H36.6221V8.70858H39.0145C39.0434 8.83422 39.0516 8.95583 39.0516 9.07343Z" fill="white" stroke="white" stroke-width="0.16" stroke-miterlimit="10"/>
<path d="M42.8472 7.05917H40.5999V8.58693H42.6259V9.16788H40.5999V10.6956H42.8472V11.2877H39.9637V6.46716H42.8472V7.05917Z" fill="white" stroke="white" stroke-width="0.16" stroke-miterlimit="10"/>
<path d="M45.5259 11.2877H44.8896V7.05917H43.5112V6.46716H46.9053V7.05917H45.5259V11.2877Z" fill="white" stroke="white" stroke-width="0.16" stroke-miterlimit="10"/>
<path d="M49.3616 11.2877V6.46716H49.9968V11.2877H49.3616Z" fill="white" stroke="white" stroke-width="0.16" stroke-miterlimit="10"/>
<path d="M52.8124 11.2877H52.1813V7.05917H50.7977V6.46716H54.196V7.05917H52.8124V11.2877Z" fill="white" stroke="white" stroke-width="0.16" stroke-miterlimit="10"/>
<path d="M60.6219 10.6675C60.135 11.155 59.5317 11.3982 58.8121 11.3982C58.0884 11.3982 57.4851 11.155 56.9982 10.6675C56.5123 10.1811 56.2704 9.58402 56.2704 8.87743C56.2704 8.17085 56.5123 7.57381 56.9982 7.08734C57.4851 6.59986 58.0884 6.35663 58.8121 6.35663C59.5276 6.35663 60.1308 6.59986 60.6178 7.09136C61.1078 7.58185 61.3497 8.17487 61.3497 8.87743C61.3497 9.58402 61.1078 10.1811 60.6219 10.6675ZM57.4687 10.2635C57.8351 10.6243 58.2809 10.8052 58.8121 10.8052C59.3392 10.8052 59.7891 10.6243 60.1514 10.2635C60.5169 9.90264 60.7022 9.43929 60.7022 8.87743C60.7022 8.31558 60.5169 7.85223 60.1514 7.49139C59.7891 7.13056 59.3392 6.94964 58.8121 6.94964C58.2809 6.94964 57.8351 7.13056 57.4687 7.49139C57.1032 7.85223 56.9179 8.31558 56.9179 8.87743C56.9179 9.43929 57.1032 9.90264 57.4687 10.2635Z" fill="white" stroke="white" stroke-width="0.16" stroke-miterlimit="10"/>
<path d="M62.2422 11.2877V6.46716H63.0143L65.415 10.2162H65.4428L65.415 9.2895V6.46716H66.0502V11.2877H65.3873L62.8733 7.35367H62.8455L62.8733 8.28439V11.2877H62.2422Z" fill="white" stroke="white" stroke-width="0.16" stroke-miterlimit="10"/>
<path d="M56.1139 18.3274C54.1795 18.3274 52.5993 19.7647 52.5993 21.7478C52.5993 23.7148 54.1795 25.1672 56.1139 25.1672C58.0523 25.1672 59.6326 23.7148 59.6326 21.7478C59.6326 19.7647 58.0523 18.3274 56.1139 18.3274ZM56.1139 23.8204C55.0525 23.8204 54.1393 22.965 54.1393 21.7478C54.1393 20.5146 55.0525 19.6743 56.1139 19.6743C57.1752 19.6743 58.0925 20.5146 58.0925 21.7478C58.0925 22.965 57.1752 23.8204 56.1139 23.8204ZM48.4454 18.3274C46.5069 18.3274 44.9308 19.7647 44.9308 21.7478C44.9308 23.7148 46.5069 25.1672 48.4454 25.1672C50.3828 25.1672 51.96 23.7148 51.96 21.7478C51.96 19.7647 50.3828 18.3274 48.4454 18.3274ZM48.4454 23.8204C47.383 23.8204 46.4668 22.965 46.4668 21.7478C46.4668 20.5146 47.383 19.6743 48.4454 19.6743C49.5068 19.6743 50.4199 20.5146 50.4199 21.7478C50.4199 22.965 49.5068 23.8204 48.4454 23.8204ZM39.3203 19.3758V20.8292H42.875C42.771 21.6413 42.4931 22.2383 42.0669 22.6544C41.548 23.157 40.7399 23.7148 39.3203 23.7148C37.1326 23.7148 35.4196 21.9911 35.4196 19.8552C35.4196 17.7194 37.1326 15.9956 39.3203 15.9956C40.5031 15.9956 41.3637 16.4469 41.9989 17.0319L43.0479 16.0077C42.1595 15.1795 40.9777 14.5432 39.3203 14.5432C36.3204 14.5432 33.7993 16.9263 33.7993 19.8552C33.7993 22.7841 36.3204 25.1672 39.3203 25.1672C40.9417 25.1672 42.1595 24.6486 43.1169 23.6756C44.098 22.7177 44.4037 21.3709 44.4037 20.2834C44.4037 19.9457 44.3749 19.6351 44.3234 19.3758H39.3203ZM76.6341 20.5025C76.3448 19.7376 75.4523 18.3274 73.6342 18.3274C71.8327 18.3274 70.3328 19.7135 70.3328 21.7478C70.3328 23.6636 71.8172 25.1672 73.8072 25.1672C75.4162 25.1672 76.3448 24.2093 76.7267 23.6515L75.5326 22.8745C75.1342 23.4434 74.5916 23.8204 73.8072 23.8204C73.0279 23.8204 72.4689 23.4716 72.1106 22.7841L76.7957 20.8915L76.6341 20.5025ZM71.8574 21.6413C71.8173 20.3226 72.9064 19.6472 73.6868 19.6472C74.2983 19.6472 74.8171 19.9457 74.9901 20.3728L71.8574 21.6413ZM68.0494 24.9591H69.5895V14.9081H68.0494V24.9591ZM65.5272 19.0893H65.4758C65.1299 18.6893 64.47 18.3274 63.6341 18.3274C61.8799 18.3274 60.276 19.8311 60.276 21.7589C60.276 23.6756 61.8799 25.1672 63.6341 25.1672C64.47 25.1672 65.1299 24.8023 65.4758 24.3902H65.5272V24.8807C65.5272 26.1884 64.8118 26.891 63.6577 26.891C62.7168 26.891 62.1331 26.2276 61.8922 25.6697L60.5529 26.2155C60.9389 27.1221 61.9612 28.2378 63.6577 28.2378C65.4634 28.2378 66.987 27.2005 66.987 24.6767V18.5355H65.5272V19.0893ZM63.7658 23.8204C62.7045 23.8204 61.816 22.9529 61.816 21.7589C61.816 20.5538 62.7045 19.6743 63.7658 19.6743C64.8118 19.6743 65.6364 20.5538 65.6364 21.7589C65.6364 22.9529 64.8118 23.8204 63.7658 23.8204ZM83.8444 14.9081H80.161V24.9591H81.697V21.1508H83.8444C85.5503 21.1508 87.2231 19.9457 87.2231 18.0289C87.2231 16.1132 85.5461 14.9081 83.8444 14.9081ZM83.8846 19.7527H81.697V16.3062H83.8846C85.0314 16.3062 85.6862 17.2359 85.6862 18.0289C85.6862 18.8069 85.0314 19.7527 83.8846 19.7527ZM93.3793 18.3083C92.2696 18.3083 91.1155 18.7868 90.6409 19.8472L92.004 20.405C92.2973 19.8472 92.8368 19.6662 93.4071 19.6662C94.2039 19.6662 95.012 20.1336 95.0244 20.9588V21.0644C94.7464 20.9076 94.1514 20.6754 93.4195 20.6754C91.9515 20.6754 90.4556 21.4644 90.4556 22.9369C90.4556 24.2837 91.6581 25.1511 93.0097 25.1511C94.0433 25.1511 94.6136 24.6958 94.9719 24.1661H95.0244V24.9431H96.5078V21.0875C96.5078 19.3054 95.1448 18.3083 93.3793 18.3083ZM93.194 23.8163C92.6916 23.8163 91.9916 23.5731 91.9916 22.965C91.9916 22.1871 92.8646 21.8885 93.6202 21.8885C94.2966 21.8885 94.6136 22.0343 95.0244 22.2263C94.9039 23.157 94.0835 23.8163 93.194 23.8163ZM101.913 18.5285L100.147 22.8856H100.094L98.2693 18.5285H96.6128L99.3553 24.6174L97.7905 28.0056H99.3955L103.621 18.5285H101.913ZM88.0673 24.9591H89.6074V14.9081H88.0673V24.9591Z" fill="white"/>
<path d="M8.59397 6.89835C8.35204 7.14561 8.21204 7.53056 8.21204 8.02909V25.8114C8.21204 26.31 8.35204 26.6949 8.59397 26.9422L8.65367 26.9965L18.8598 17.0359V16.8007L8.65367 6.84005L8.59397 6.89835Z" fill="url(#paint0_linear_458_1457)"/>
<path d="M22.258 20.3577L18.8597 17.0359V16.8007L22.2621 13.4788L22.3383 13.522L26.3676 15.7604C27.5175 16.3956 27.5175 17.4409 26.3676 18.0802L22.3383 20.3145L22.258 20.3577Z" fill="url(#paint1_linear_458_1457)"/>
<path d="M22.3383 20.3146L18.8597 16.9183L8.59393 26.9422C8.97586 27.3342 9.59869 27.3815 10.307 26.9895L22.3383 20.3146Z" fill="url(#paint2_linear_458_1457)"/>
<path d="M22.3383 13.522L10.307 6.84711C9.59869 6.45914 8.97586 6.50638 8.59393 6.89837L18.8597 16.9183L22.3383 13.522Z" fill="url(#paint3_linear_458_1457)"/>
<defs>
<linearGradient id="paint0_linear_458_1457" x1="17.9536" y1="25.9966" x2="4.46296" y2="12.1791" gradientUnits="userSpaceOnUse">
<stop stop-color="#00A0FF"/>
<stop offset="0.0066" stop-color="#00A1FF"/>
<stop offset="0.2601" stop-color="#00BEFF"/>
<stop offset="0.5122" stop-color="#00D2FF"/>
<stop offset="0.7604" stop-color="#00DFFF"/>
<stop offset="1" stop-color="#00E3FF"/>
</linearGradient>
<linearGradient id="paint1_linear_458_1457" x1="27.8649" y1="16.9171" x2="7.93713" y2="16.9171" gradientUnits="userSpaceOnUse">
<stop stop-color="#FFE000"/>
<stop offset="0.4087" stop-color="#FFBD00"/>
<stop offset="0.7754" stop-color="#FFA500"/>
<stop offset="1" stop-color="#FF9C00"/>
</linearGradient>
<linearGradient id="paint2_linear_458_1457" x1="20.4467" y1="15.0721" x2="2.15237" y2="-3.6656" gradientUnits="userSpaceOnUse">
<stop stop-color="#FF3A44"/>
<stop offset="1" stop-color="#C31162"/>
</linearGradient>
<linearGradient id="paint3_linear_458_1457" x1="6.00982" y1="32.8583" x2="14.1791" y2="24.4912" gradientUnits="userSpaceOnUse">
<stop stop-color="#32A071"/>
<stop offset="0.0685" stop-color="#2DA771"/>
<stop offset="0.4762" stop-color="#15CF74"/>
<stop offset="0.8009" stop-color="#06E775"/>
<stop offset="1" stop-color="#00F076"/>
</linearGradient>
</defs>
</svg>
