<svg width="24" height="24" viewBox="0 0 24 24" fill="none" xmlns="http://www.w3.org/2000/svg">
<path d="M21 1.9375C21.3978 1.9375 21.7794 2.08895 22.0607 2.35853C22.342 2.62812 22.5 2.99375 22.5 3.375V20.625C22.5 21.0062 22.342 21.3719 22.0607 21.6415C21.7794 21.911 21.3978 22.0625 21 22.0625H3C2.60218 22.0625 2.22064 21.911 1.93934 21.6415C1.65804 21.3719 1.5 21.0062 1.5 20.625V3.375C1.5 2.99375 1.65804 2.62812 1.93934 2.35853C2.22064 2.08895 2.60218 1.9375 3 1.9375H21ZM3 0.5C2.20435 0.5 1.44129 0.802901 0.87868 1.34207C0.316071 1.88124 0 2.6125 0 3.375L0 20.625C0 21.3875 0.316071 22.1188 0.87868 22.6579C1.44129 23.1971 2.20435 23.5 3 23.5H21C21.7956 23.5 22.5587 23.1971 23.1213 22.6579C23.6839 22.1188 24 21.3875 24 20.625V3.375C24 2.6125 23.6839 1.88124 23.1213 1.34207C22.5587 0.802901 21.7956 0.5 21 0.5L3 0.5Z" fill="#032E2E"/>
<path d="M10.5029 16.3124C10.5029 16.1236 10.5417 15.9367 10.6171 15.7623C10.6925 15.5878 10.803 15.4294 10.9423 15.2959C11.0816 15.1624 11.2469 15.0565 11.4289 14.9843C11.6109 14.912 11.8059 14.8749 12.0029 14.8749C12.1999 14.8749 12.395 14.912 12.577 14.9843C12.7589 15.0565 12.9243 15.1624 13.0636 15.2959C13.2029 15.4294 13.3134 15.5878 13.3887 15.7623C13.4641 15.9367 13.5029 16.1236 13.5029 16.3124C13.5029 16.6936 13.3449 17.0592 13.0636 17.3288C12.7823 17.5984 12.4008 17.7499 12.0029 17.7499C11.6051 17.7499 11.2236 17.5984 10.9423 17.3288C10.661 17.0592 10.5029 16.6936 10.5029 16.3124ZM10.6499 7.68018C10.63 7.49882 10.65 7.31547 10.7087 7.14202C10.7675 6.96856 10.8636 6.80888 10.9909 6.67333C11.1182 6.53778 11.2738 6.4294 11.4476 6.35521C11.6215 6.28102 11.8096 6.24268 11.9999 6.24268C12.1902 6.24268 12.3784 6.28102 12.5522 6.35521C12.726 6.4294 12.8817 6.53778 13.009 6.67333C13.1362 6.80888 13.2324 6.96856 13.2911 7.14202C13.3499 7.31547 13.3699 7.49882 13.3499 7.68018L12.8249 12.7215C12.8073 12.9195 12.7127 13.104 12.56 13.2385C12.4072 13.3729 12.2073 13.4475 11.9999 13.4475C11.7925 13.4475 11.5927 13.3729 11.4399 13.2385C11.2871 13.104 11.1926 12.9195 11.1749 12.7215L10.6499 7.68018Z" fill="#032E2E"/>
</svg>
