<svg width="58" height="73" viewBox="0 0 58 73" fill="none" xmlns="http://www.w3.org/2000/svg">
<path d="M57.9994 29.0045C58.0279 24.5606 57.022 20.1704 55.0603 16.1769C53.0986 12.1834 50.2342 8.69489 46.6911 5.98392C43.1479 3.27295 39.0219 1.41299 34.6355 0.549412C30.2491 -0.31417 25.7213 -0.157969 21.4057 1.00578C17.0901 2.16953 13.1038 4.30932 9.75832 7.25791C6.41279 10.2065 3.79869 13.884 2.12031 18.0031C0.441934 22.1221 -0.255277 26.5711 0.0832063 31.0023C0.42169 35.4335 1.78668 39.7269 4.0715 43.5469L4.15609 43.655C5.26776 45.5043 6.65736 46.8373 8.05902 48.7947L24.879 70.9265C25.3653 71.5704 25.9956 72.0929 26.7202 72.4528C27.4448 72.8126 28.2438 73 29.0538 73C29.8638 73 30.6628 72.8126 31.3874 72.4528C32.112 72.0929 32.7423 71.5704 33.2286 70.9265L49.7586 49.1549C51.2631 47.389 52.667 45.5408 53.9636 43.6189L54.024 43.5469C56.6321 39.1392 58.0048 34.1178 57.9994 29.0045ZM28.9994 41.5295C26.4781 41.5295 24.0134 40.7864 21.9171 39.3943C19.8207 38.0022 18.1868 36.0236 17.2219 33.7086C16.257 31.3936 16.0046 28.8463 16.4964 26.3888C16.9883 23.9312 18.2024 21.6738 19.9853 19.902C21.7681 18.1302 24.0396 16.9236 26.5124 16.4347C28.9853 15.9459 31.5485 16.1968 33.8779 17.1557C36.2072 18.1146 38.1982 19.7384 39.5989 21.8218C40.9997 23.9052 41.7473 26.3547 41.7473 28.8604C41.7505 32.2152 40.4135 35.434 38.0299 37.8095C35.6464 40.1851 32.4113 41.5231 29.0357 41.5295H28.9994Z" fill="#78BC61"/>
</svg>
