<svg width="24" height="24" viewBox="0 0 24 24" fill="none" xmlns="http://www.w3.org/2000/svg">
<path fill-rule="evenodd" clip-rule="evenodd" d="M2.5 10.75C2.5 6.266 6.565 2.5 11.75 2.5C16.935 2.5 21 6.266 21 10.75C21 13.19 19.515 15.42 17.495 17.258C15.883 18.725 14.005 19.872 12.5 20.598V19.25C12.5 19.0511 12.421 18.8603 12.2803 18.7197C12.1397 18.579 11.9489 18.5 11.75 18.5C9.442 18.5 7.109 17.573 5.355 16.111C3.598 14.647 2.5 12.716 2.5 10.75ZM11.75 1C5.89 1 1 5.293 1 10.75C1 13.284 2.402 15.603 4.395 17.264C6.205 18.773 8.568 19.795 11 19.973V21.75C11.0001 21.8725 11.0302 21.993 11.0876 22.1012C11.1451 22.2094 11.2281 22.3018 11.3295 22.3705C11.4309 22.4391 11.5476 22.4819 11.6694 22.4951C11.7911 22.5082 11.9143 22.4914 12.028 22.446C13.765 21.752 16.345 20.332 18.505 18.367C20.652 16.414 22.5 13.81 22.5 10.75C22.5 5.293 17.61 1 11.75 1ZM7.25 12.25C7.44698 12.25 7.64204 12.2112 7.82403 12.1358C8.00601 12.0604 8.17137 11.9499 8.31066 11.8107C8.44995 11.6714 8.56044 11.506 8.63582 11.324C8.7112 11.142 8.75 10.947 8.75 10.75C8.75 10.553 8.7112 10.358 8.63582 10.176C8.56044 9.99399 8.44995 9.82863 8.31066 9.68934C8.17137 9.55005 8.00601 9.43956 7.82403 9.36418C7.64204 9.2888 7.44698 9.25 7.25 9.25C6.85218 9.25 6.47064 9.40804 6.18934 9.68934C5.90804 9.97064 5.75 10.3522 5.75 10.75C5.75 11.1478 5.90804 11.5294 6.18934 11.8107C6.47064 12.092 6.85218 12.25 7.25 12.25ZM11.75 12.25C11.947 12.25 12.142 12.2112 12.324 12.1358C12.506 12.0604 12.6714 11.9499 12.8107 11.8107C12.9499 11.6714 13.0604 11.506 13.1358 11.324C13.2112 11.142 13.25 10.947 13.25 10.75C13.25 10.553 13.2112 10.358 13.1358 10.176C13.0604 9.99399 12.9499 9.82863 12.8107 9.68934C12.6714 9.55005 12.506 9.43956 12.324 9.36418C12.142 9.2888 11.947 9.25 11.75 9.25C11.3522 9.25 10.9706 9.40804 10.6893 9.68934C10.408 9.97064 10.25 10.3522 10.25 10.75C10.25 11.1478 10.408 11.5294 10.6893 11.8107C10.9706 12.092 11.3522 12.25 11.75 12.25ZM17.75 10.75C17.75 11.1478 17.592 11.5294 17.3107 11.8107C17.0294 12.092 16.6478 12.25 16.25 12.25C15.8522 12.25 15.4706 12.092 15.1893 11.8107C14.908 11.5294 14.75 11.1478 14.75 10.75C14.75 10.3522 14.908 9.97064 15.1893 9.68934C15.4706 9.40804 15.8522 9.25 16.25 9.25C16.6478 9.25 17.0294 9.40804 17.3107 9.68934C17.592 9.97064 17.75 10.3522 17.75 10.75Z" fill="#032E2E"/>
</svg>
