<svg width="24" height="24" viewBox="0 0 24 24" fill="none" xmlns="http://www.w3.org/2000/svg">
<path d="M9.5 13.7493C9.5 14.7193 10.25 15.4993 11.17 15.4993H13.05C13.85 15.4993 14.5 14.8193 14.5 13.9693C14.5 13.0593 14.1 12.7293 13.51 12.5193L10.5 11.4693C9.91 11.2593 9.51001 10.9393 9.51001 10.0193C9.51001 9.17926 10.16 8.48926 10.96 8.48926H12.84C13.76 8.48926 14.51 9.26926 14.51 10.2393" stroke="#032E2E" stroke-width="0.6" stroke-linecap="round" stroke-linejoin="round"/>
<path d="M12 7.5V16.5" stroke="#032E2E" stroke-width="0.6" stroke-linecap="round" stroke-linejoin="round"/>
<path d="M22 11.999C22 17.519 17.52 21.999 12 21.999C6.48 21.999 2 17.519 2 11.999C2 6.47902 6.48 1.99902 12 1.99902" stroke="#032E2E" stroke-linecap="round" stroke-linejoin="round"/>
<path d="M22 5.99902V1.99902H18" stroke="#032E2E" stroke-linecap="round" stroke-linejoin="round"/>
<path d="M17 6.99902L22 1.99902" stroke="#032E2E" stroke-linecap="round" stroke-linejoin="round"/>
</svg>
