<svg width="20" height="20" viewBox="0 0 20 20" fill="none" xmlns="http://www.w3.org/2000/svg">
<path d="M17.4252 9.26758C17.4252 13.3426 14.4669 17.1592 10.4252 18.2759C10.1502 18.3509 9.85019 18.3509 9.57519 18.2759C5.53353 17.1592 2.5752 13.3426 2.5752 9.26758V5.60924C2.5752 4.92591 3.09186 4.15091 3.73353 3.89258L8.3752 1.99258C9.41686 1.56758 10.5919 1.56758 11.6335 1.99258L16.2752 3.89258C16.9085 4.15091 17.4335 4.92591 17.4335 5.60924L17.4252 9.26758Z" stroke="#032E2E" stroke-linecap="round" stroke-linejoin="round"/>
<path d="M9.99967 10.4173C10.4417 10.4173 10.8656 10.2417 11.1782 9.92916C11.4907 9.6166 11.6663 9.19268 11.6663 8.75065C11.6663 8.30862 11.4907 7.8847 11.1782 7.57214C10.8656 7.25958 10.4417 7.08398 9.99967 7.08398C9.55765 7.08398 9.13372 7.25958 8.82116 7.57214C8.5086 7.8847 8.33301 8.30862 8.33301 8.75065C8.33301 9.19268 8.5086 9.6166 8.82116 9.92916C9.13372 10.2417 9.55765 10.4173 9.99967 10.4173ZM9.99967 10.4173V12.9173" stroke="#032E2E" stroke-miterlimit="10" stroke-linecap="round" stroke-linejoin="round"/>
</svg>
