<svg width="18" height="18" viewBox="0 0 18 18" fill="none" xmlns="http://www.w3.org/2000/svg">
<path d="M0.666992 9.73385V8.26718C0.666992 7.40052 1.37533 6.68385 2.25033 6.68385C3.75866 6.68385 4.37533 5.61718 3.61699 4.30885C3.18366 3.55885 3.44199 2.58385 4.20033 2.15052L5.64199 1.32552C6.30033 0.93385 7.15033 1.16718 7.54199 1.82552L7.63366 1.98385C8.38366 3.29218 9.61699 3.29218 10.3753 1.98385L10.467 1.82552C10.8587 1.16718 11.7087 0.93385 12.367 1.32552L13.8087 2.15052C14.567 2.58385 14.8253 3.55885 14.392 4.30885C13.6337 5.61718 14.2503 6.68385 15.7587 6.68385C16.6253 6.68385 17.342 7.39218 17.342 8.26718V9.73385C17.342 10.6005 16.6337 11.3172 15.7587 11.3172C14.2503 11.3172 13.6337 12.3838 14.392 13.6922C14.8253 14.4505 14.567 15.4172 13.8087 15.8505L12.367 16.6755C11.7087 17.0672 10.8587 16.8339 10.467 16.1755L10.3753 16.0172C9.62533 14.7089 8.39199 14.7089 7.63366 16.0172L7.54199 16.1755C7.15033 16.8339 6.30033 17.0672 5.64199 16.6755L4.20033 15.8505C3.83708 15.6414 3.57164 15.2966 3.46228 14.892C3.35292 14.4874 3.40856 14.0558 3.61699 13.6922C4.37533 12.3838 3.75866 11.3172 2.25033 11.3172C1.37533 11.3172 0.666992 10.6005 0.666992 9.73385Z" stroke="#032E2E" stroke-miterlimit="10" stroke-linecap="round" stroke-linejoin="round"/>
</svg>
