<svg width="20" height="20" viewBox="0 0 20 20" fill="none" xmlns="http://www.w3.org/2000/svg">
<path fill-rule="evenodd" clip-rule="evenodd" d="M2.5 9.99999V14.1667C2.5 15.0507 2.85119 15.8986 3.47631 16.5237C4.10143 17.1488 4.94928 17.5 5.83333 17.5H14.1667C15.0507 17.5 15.8986 17.1488 16.5237 16.5237C17.1488 15.8986 17.5 15.0507 17.5 14.1667V9.99999H15.8333V14.1667C15.8333 14.6087 15.6577 15.0326 15.3452 15.3452C15.0326 15.6577 14.6087 15.8333 14.1667 15.8333H5.83333C5.39131 15.8333 4.96738 15.6577 4.65482 15.3452C4.34226 15.0326 4.16667 14.6087 4.16667 14.1667V9.99999H2.5ZM9.16667 5.34499V12.5H10.8333V5.34499L12.7442 7.25583L13.9225 6.07666L10.5892 2.74416C10.5118 2.66668 10.4199 2.60522 10.3187 2.56328C10.2175 2.52134 10.1091 2.49976 9.99958 2.49976C9.89007 2.49976 9.78163 2.52134 9.68047 2.56328C9.5793 2.60522 9.48739 2.66668 9.41 2.74416L6.07667 6.07749L7.25583 7.25583L9.16667 5.34499Z" fill="#78BC61"/>
</svg>
