<svg width="24" height="24" viewBox="0 0 24 24" fill="none" xmlns="http://www.w3.org/2000/svg">
<path d="M22 10.5V15.5C22 19 20 20.5 17 20.5H7C4 20.5 2 19 2 15.5V8.5C2 5 4 3.5 7 3.5H14" stroke="#032E2E" stroke-miterlimit="10" stroke-linecap="round" stroke-linejoin="round"/>
<path d="M7 9L10.13 11.5C11.16 12.32 12.85 12.32 13.88 11.5L15.06 10.56" stroke="#032E2E" stroke-miterlimit="10" stroke-linecap="round" stroke-linejoin="round"/>
<path d="M20 9C21.6569 9 23 7.65685 23 6C23 4.34315 21.6569 3 20 3C18.3431 3 17 4.34315 17 6C17 7.65685 18.3431 9 20 9Z" fill="#076D6D"/>
</svg>
