<svg width="32" height="32" viewBox="0 0 32 32" fill="none" xmlns="http://www.w3.org/2000/svg">
<path d="M19.7067 26.6667H13.04C10.64 26.6667 6.10669 25.4533 6.10669 20.8533C6.10669 16.2533 10.64 15.04 13.04 15.04H18.96C19.16 15.04 23.8934 14.9733 23.8934 11.2267C23.8934 7.48 19.16 7.41333 18.96 7.41333H12.2934C12.0281 7.41333 11.7738 7.30797 11.5862 7.12044C11.3987 6.9329 11.2934 6.67855 11.2934 6.41333C11.2934 6.14811 11.3987 5.89376 11.5862 5.70622C11.7738 5.51869 12.0281 5.41333 12.2934 5.41333H18.96C21.36 5.41333 25.8934 6.62666 25.8934 11.2267C25.8934 15.8267 21.36 17.04 18.96 17.04H13.04C12.84 17.04 8.10669 17.1067 8.10669 20.8533C8.10669 24.6 12.84 24.6667 13.04 24.6667H19.7067C19.9719 24.6667 20.2263 24.772 20.4138 24.9596C20.6013 25.1471 20.7067 25.4014 20.7067 25.6667C20.7067 25.9319 20.6013 26.1862 20.4138 26.3738C20.2263 26.5613 19.9719 26.6667 19.7067 26.6667Z" fill="#232538"/>
<path d="M8.58664 11.08C7.96855 11.0748 7.35755 10.9478 6.78852 10.7064C6.21949 10.465 5.70358 10.1139 5.27024 9.67317C4.8369 9.2324 4.49462 8.7106 4.26294 8.13755C4.03126 7.5645 3.91472 6.95143 3.91997 6.33334C3.92522 5.71525 4.05217 5.10425 4.29355 4.53522C4.53494 3.96619 4.88604 3.45028 5.3268 3.01694C5.76757 2.5836 6.28938 2.24132 6.86243 2.00964C7.43548 1.77796 8.04855 1.66142 8.66664 1.66667C9.91492 1.67728 11.1079 2.18334 11.983 3.07351C12.8582 3.96368 13.3439 5.16506 13.3333 6.41334C13.3227 7.66163 12.8166 8.85457 11.9265 9.72974C11.0363 10.6049 9.83492 11.0906 8.58664 11.08ZM8.58664 3.66667C7.87939 3.66667 7.20112 3.94763 6.70102 4.44772C6.20092 4.94782 5.91997 5.6261 5.91997 6.33334C5.91997 7.04059 6.20092 7.71886 6.70102 8.21896C7.20112 8.71906 7.87939 9.00001 8.58664 9.00001C9.29388 9.00001 9.97216 8.71906 10.4723 8.21896C10.9724 7.71886 11.2533 7.04059 11.2533 6.33334C11.2533 5.6261 10.9724 4.94782 10.4723 4.44772C9.97216 3.94763 9.29388 3.66667 8.58664 3.66667ZM23.4133 30.3333C22.7952 30.3351 22.1828 30.2151 21.6111 29.9802C21.0394 29.7453 20.5196 29.4 20.0813 28.9642C19.643 28.5284 19.2948 28.0105 19.0567 27.4402C18.8185 26.8698 18.6951 26.2581 18.6933 25.64C18.6916 25.0219 18.8116 24.4095 19.0465 23.8378C19.2814 23.2661 19.6266 22.7463 20.0624 22.308C20.4982 21.8697 21.0161 21.5215 21.5865 21.2834C22.1569 21.0452 22.7685 20.9218 23.3866 20.92C24.6349 20.9165 25.8335 21.409 26.7187 22.2891C27.6038 23.1693 28.1031 24.3651 28.1066 25.6133C28.1102 26.8616 27.6177 28.0602 26.7375 28.9454C25.8573 29.8305 24.6616 30.3298 23.4133 30.3333ZM23.4133 22.92C22.7061 22.92 22.0278 23.201 21.5277 23.7011C21.0276 24.2012 20.7466 24.8794 20.7466 25.5867C20.7466 26.2939 21.0276 26.9722 21.5277 27.4723C22.0278 27.9724 22.7061 28.2533 23.4133 28.2533C24.1205 28.2533 24.7988 27.9724 25.2989 27.4723C25.799 26.9722 26.08 26.2939 26.08 25.5867C26.08 24.8794 25.799 24.2012 25.2989 23.7011C24.7988 23.201 24.1205 22.92 23.4133 22.92Z" fill="#232538"/>
</svg>
