<svg width="34" height="34" viewBox="0 0 34 34" fill="none" xmlns="http://www.w3.org/2000/svg">
<path d="M17.0487 5.33418C13.98 5.30103 11.0233 6.48618 8.8271 8.62975C6.63087 10.7733 5.37433 13.7003 5.33301 16.769C5.33143 18.3006 5.64445 19.8162 6.25266 21.2219C6.86087 22.6276 7.75132 23.8934 8.8688 24.9408L8.44133 27.2206C8.3948 27.4706 8.40377 27.7277 8.4676 27.9738C8.53143 28.2199 8.64856 28.449 8.81071 28.6449C8.97286 28.8407 9.17606 28.9985 9.40595 29.1072C9.63583 29.2158 9.88677 29.2726 10.141 29.2735C10.4282 29.2723 10.7107 29.2003 10.9634 29.0638L13.5486 27.6715C14.6826 28.0225 15.8627 28.2019 17.0498 28.2038C20.1185 28.237 23.0752 27.0518 25.2714 24.9082C27.4676 22.7647 28.7242 19.8376 28.7655 16.769C28.7242 13.7002 27.4675 10.773 25.271 8.62939C23.0746 6.48579 20.1177 5.30076 17.0487 5.33418ZM13.4987 13.4765H17.5698C17.8398 13.4765 18.0986 13.5837 18.2895 13.7746C18.4804 13.9654 18.5876 14.2243 18.5876 14.4942C18.5876 14.7642 18.4804 15.0231 18.2895 15.2139C18.0986 15.4048 17.8398 15.512 17.5698 15.512H13.4987C13.2288 15.512 12.9699 15.4048 12.779 15.2139C12.5881 15.0231 12.4809 14.7642 12.4809 14.4942C12.4809 14.2243 12.5881 13.9654 12.779 13.7746C12.9699 13.5837 13.2288 13.4765 13.4987 13.4765ZM19.6054 19.5832H13.4987C13.2288 19.5832 12.9699 19.4759 12.779 19.2851C12.5881 19.0942 12.4809 18.8353 12.4809 18.5654C12.4809 18.2955 12.5881 18.0366 12.779 17.8457C12.9699 17.6548 13.2288 17.5476 13.4987 17.5476H19.6054C19.8753 17.5476 20.1342 17.6548 20.3251 17.8457C20.516 18.0366 20.6232 18.2955 20.6232 18.5654C20.6232 18.8353 20.516 19.0942 20.3251 19.2851C20.1342 19.4759 19.8753 19.5832 19.6054 19.5832Z" fill="#032E2E"/>
</svg>
