<svg width="26" height="28" viewBox="0 0 26 28" fill="none" xmlns="http://www.w3.org/2000/svg">
<path d="M13 14C14.3844 14 15.7378 13.5895 16.8889 12.8203C18.0401 12.0511 18.9373 10.9579 19.4671 9.67879C19.9969 8.3997 20.1355 6.99224 19.8655 5.63437C19.5954 4.2765 18.9287 3.02922 17.9497 2.05026C16.9707 1.07129 15.7235 0.404603 14.3656 0.134506C13.0077 -0.13559 11.6003 0.00303298 10.3212 0.532846C9.04209 1.06266 7.94884 1.95987 7.17967 3.11101C6.4105 4.26216 5.99995 5.61553 5.99995 7C6.00207 8.85587 6.74025 10.6351 8.05255 11.9474C9.36484 13.2597 11.1441 13.9979 13 14ZM13 2C13.9889 2 14.9556 2.29325 15.7778 2.84265C16.6001 3.39206 17.2409 4.17296 17.6194 5.08659C17.9978 6.00022 18.0968 7.00555 17.9039 7.97545C17.711 8.94536 17.2348 9.83627 16.5355 10.5355C15.8362 11.2348 14.9453 11.711 13.9754 11.9039C13.0055 12.0969 12.0002 11.9978 11.0865 11.6194C10.1729 11.241 9.39201 10.6001 8.84261 9.77785C8.2932 8.95561 7.99995 7.98891 7.99995 7C8.00154 5.67441 8.52884 4.40356 9.46617 3.46622C10.4035 2.52889 11.6744 2.00159 13 2ZM25.423 24.13C24.5632 21.5187 22.8973 19.2474 20.6651 17.6428C18.4328 16.0382 15.7491 15.1829 13 15.2C10.2508 15.1829 7.56713 16.0382 5.33485 17.6428C3.10256 19.2474 1.43673 21.5187 0.576954 24.13C0.433122 24.5683 0.39647 25.0346 0.47007 25.49C0.54367 25.9453 0.725378 26.3764 0.999954 26.747C1.28091 27.1339 1.64922 27.4491 2.07495 27.6668C2.50068 27.8845 2.97178 27.9987 3.44995 28H22.55C23.0281 27.9987 23.4992 27.8845 23.925 27.6668C24.3507 27.4491 24.719 27.1339 25 26.747C25.2745 26.3764 25.4562 25.9453 25.5298 25.49C25.6034 25.0346 25.5668 24.5683 25.423 24.13ZM23.383 25.572C23.2876 25.7039 23.1625 25.8114 23.0177 25.8858C22.873 25.9602 22.7127 25.9993 22.55 26H3.44995C3.28721 25.9993 3.12692 25.9602 2.98217 25.8858C2.83741 25.8114 2.71227 25.7039 2.61695 25.572C2.52921 25.4564 2.47074 25.3212 2.44654 25.1781C2.42234 25.0349 2.43311 24.8881 2.47795 24.75C3.22195 22.5493 4.63726 20.6372 6.52474 19.2829C8.41222 17.9285 10.6769 17.2001 13 17.2001C15.3231 17.2001 17.5877 17.9285 19.4752 19.2829C21.3626 20.6372 22.778 22.5493 23.522 24.75C23.5668 24.8881 23.5776 25.0349 23.5534 25.1781C23.5292 25.3212 23.4707 25.4564 23.383 25.572Z" fill="#232538"/>
</svg>
