<svg width="291" height="90" viewBox="0 0 291 90" fill="none" xmlns="http://www.w3.org/2000/svg">
<path d="M50.2809 8.7043L16.7097 42.0255C16.3178 42.4146 16.3154 43.0477 16.7045 43.4397L51.4893 78.4855C51.8784 78.8775 52.5116 78.8799 52.9035 78.4908L86.4747 45.1696C86.8667 44.7805 86.8691 44.1474 86.48 43.7554L51.6951 8.70959C51.3061 8.31761 50.6729 8.31524 50.2809 8.7043Z" fill="url(#paint0_linear_521_427)"/>
<path d="M52.1912 59.3733C51.8075 59.73 51.2136 59.7302 50.8297 59.3738L35.6141 45.2463C34.9482 44.628 35.3855 43.5138 36.2942 43.5135L66.7142 43.5015C67.6229 43.5011 68.061 44.6149 67.3956 45.2337L52.1912 59.3733Z" fill="white"/>
<path d="M107.492 61.9999V38.6479H98.504V32.3899H124.25V38.6479H115.262V61.9999H107.492ZM123.771 61.9999V46.5019C123.771 45.5219 123.743 44.5419 123.687 43.5619C123.631 42.5819 123.547 41.6159 123.435 40.6639H130.659L131.457 47.2159H130.323C130.603 45.6199 131.051 44.3039 131.667 43.2679C132.283 42.2319 133.053 41.4619 133.977 40.9579C134.901 40.4539 135.993 40.2019 137.253 40.2019C137.841 40.2019 138.275 40.2299 138.555 40.2859C138.863 40.3139 139.185 40.3979 139.521 40.5379V47.0899C138.821 46.7819 138.261 46.5859 137.841 46.5019C137.421 46.4179 136.875 46.3759 136.203 46.3759C135.055 46.3759 134.117 46.5859 133.389 47.0059C132.661 47.3979 132.129 48.0139 131.793 48.8539C131.485 49.6939 131.331 50.7719 131.331 52.0879V61.9999H123.771ZM141.777 61.9999V40.6639H149.253V61.9999H141.777ZM141.609 37.6399V30.9199H149.463V37.6399H141.609ZM153.876 71.0719V46.4599C153.876 45.5079 153.848 44.5419 153.792 43.5619C153.736 42.5819 153.652 41.6159 153.54 40.6639H160.764L161.226 44.4439H160.806C161.198 43.1839 162.066 42.1619 163.41 41.3779C164.754 40.5939 166.252 40.2019 167.904 40.2019C169.752 40.2019 171.376 40.6499 172.776 41.5459C174.176 42.4139 175.268 43.6879 176.052 45.3679C176.864 47.0199 177.27 49.0079 177.27 51.3319C177.27 53.6279 176.864 55.6159 176.052 57.2959C175.268 58.9759 174.176 60.2639 172.776 61.1599C171.376 62.0279 169.752 62.4619 167.904 62.4619C166.28 62.4619 164.81 62.0979 163.494 61.3699C162.178 60.6139 161.31 59.6199 160.89 58.3879H161.352V71.0719H153.876ZM165.51 56.9179C166.798 56.9179 167.82 56.4839 168.576 55.6159C169.36 54.7199 169.752 53.2919 169.752 51.3319C169.752 49.3719 169.36 47.9579 168.576 47.0899C167.82 46.1939 166.798 45.7459 165.51 45.7459C164.25 45.7459 163.228 46.1939 162.444 47.0899C161.66 47.9579 161.268 49.3719 161.268 51.3319C161.268 53.2919 161.66 54.7199 162.444 55.6159C163.228 56.4839 164.25 56.9179 165.51 56.9179ZM181.326 61.9999V32.3899H195.69C198.994 32.3899 201.528 33.0759 203.292 34.4479C205.084 35.8199 205.98 37.6819 205.98 40.0339C205.98 41.7699 205.462 43.2539 204.426 44.4859C203.418 45.7179 202.032 46.5579 200.268 47.0059V46.3339C202.368 46.6979 203.978 47.5099 205.098 48.7699C206.246 50.0019 206.82 51.6119 206.82 53.5999C206.82 56.2039 205.868 58.2619 203.964 59.7739C202.06 61.2579 199.456 61.9999 196.152 61.9999H181.326ZM188.76 56.3299H195.144C196.6 56.3299 197.678 56.0639 198.378 55.5319C199.106 54.9999 199.47 54.1739 199.47 53.0539C199.47 51.9059 199.106 51.0799 198.378 50.5759C197.678 50.0719 196.6 49.8199 195.144 49.8199H188.76V56.3299ZM188.76 44.1499H194.262C195.746 44.1499 196.824 43.8979 197.496 43.3939C198.196 42.8899 198.546 42.1199 198.546 41.0839C198.546 40.0479 198.196 39.2919 197.496 38.8159C196.824 38.3119 195.746 38.0599 194.262 38.0599H188.76V44.1499ZM221.023 62.4619C218.643 62.4619 216.585 62.0139 214.849 61.1179C213.113 60.2219 211.769 58.9479 210.817 57.2959C209.865 55.6159 209.389 53.6279 209.389 51.3319C209.389 49.0079 209.865 47.0199 210.817 45.3679C211.769 43.7159 213.113 42.4419 214.849 41.5459C216.585 40.6499 218.643 40.2019 221.023 40.2019C223.375 40.2019 225.419 40.6499 227.155 41.5459C228.891 42.4419 230.235 43.7299 231.187 45.4099C232.139 47.0619 232.615 49.0359 232.615 51.3319C232.615 53.5999 232.139 55.5739 231.187 57.2539C230.235 58.9339 228.891 60.2219 227.155 61.1179C225.419 62.0139 223.375 62.4619 221.023 62.4619ZM221.023 56.9179C222.255 56.9179 223.235 56.4839 223.963 55.6159C224.691 54.7199 225.055 53.2919 225.055 51.3319C225.055 49.3719 224.691 47.9579 223.963 47.0899C223.235 46.1939 222.255 45.7459 221.023 45.7459C219.763 45.7459 218.769 46.1939 218.041 47.0899C217.313 47.9579 216.949 49.3719 216.949 51.3319C216.949 53.2919 217.313 54.7199 218.041 55.6159C218.769 56.4839 219.763 56.9179 221.023 56.9179ZM231.923 61.9999L242.255 49.3999V52.6339L232.511 40.6639H241.247L246.539 47.5939H243.851L249.185 40.6639H257.879L248.135 52.6759V49.3159L258.509 61.9999H249.689L243.851 54.4819H246.539L240.659 61.9999H231.923Z" fill="#78BC61"/>
<defs>
<linearGradient id="paint0_linear_521_427" x1="52" y1="7.99988" x2="52" y2="78.9999" gradientUnits="userSpaceOnUse">
<stop stop-color="#AED7A0"/>
<stop offset="1" stop-color="#48713A"/>
</linearGradient>
</defs>
</svg>
