<svg width="30" height="30" viewBox="0 0 30 30" fill="none" xmlns="http://www.w3.org/2000/svg">
<path d="M22.0807 10.4897C21.9494 9.97835 21.5693 9.3954 21.092 8.89596C20.5057 8.28233 19.7557 7.7829 19.0994 7.6363C16.3905 7.11798 13.6078 7.11798 10.8989 7.6363C9.70568 7.90221 8.21079 9.34085 7.91932 10.4897C7.43209 12.707 7.43209 15.0037 7.91932 17.221C8.15454 18.1516 9.17557 19.2664 10.1864 19.8016C10.4104 19.9249 10.6501 20.0172 10.8989 20.0761C10.9246 20.0805 10.948 20.0939 10.9648 20.1138C10.9816 20.1338 10.9909 20.1591 10.9909 20.1852V23.4579C10.9909 23.4941 11.0017 23.5294 11.0219 23.5594C11.0422 23.5894 11.071 23.6126 11.1046 23.626C11.1383 23.6394 11.1751 23.6424 11.2104 23.6346C11.2458 23.6268 11.278 23.6086 11.3028 23.5823L12.8591 21.9886L14.3182 20.4886C14.3285 20.4773 14.3412 20.4684 14.3553 20.4625C14.3695 20.4567 14.3847 20.4539 14.4 20.4545C15.9749 20.4969 17.5499 20.37 19.0977 20.0761C20.2909 19.8102 21.7858 18.3715 22.079 17.221C22.5668 15.0038 22.5673 12.7071 22.0807 10.4897ZM19.142 17.3863C18.9208 17.8918 18.54 18.3109 18.058 18.5795C17.9071 18.645 17.7501 18.6952 17.5892 18.7295C17.4068 18.6732 17.233 18.6374 17.0778 18.5693C15.7883 18.0658 14.5882 17.3579 13.5239 16.4727C13.2076 16.2013 12.9098 15.9092 12.6324 15.5982C11.9492 14.8116 11.3758 13.936 10.9278 12.9954C10.7097 12.5522 10.5256 12.0903 10.3381 11.6318C10.1676 11.2141 10.4199 10.7795 10.679 10.4693C10.932 10.1793 11.2441 9.94684 11.5943 9.78744C11.7173 9.7249 11.8583 9.70771 11.9927 9.73889C12.1271 9.77006 12.2461 9.84761 12.329 9.9579C12.7611 10.4479 13.1421 10.9808 13.4659 11.5482C13.5682 11.7135 13.6031 11.9118 13.5635 12.1021C13.5239 12.2924 13.4126 12.4603 13.2528 12.571C13.1676 12.6289 13.0824 12.6988 13.0091 12.7636C12.9368 12.8177 12.8745 12.884 12.825 12.9596C12.782 13.03 12.7559 13.1095 12.7488 13.1917C12.7417 13.2739 12.7538 13.3567 12.7841 13.4335C13.1131 14.3386 13.6125 15.092 14.3591 15.6221C14.6117 15.8013 14.8839 15.9511 15.1705 16.0687C15.3574 16.1707 15.5678 16.2218 15.7807 16.217C16.1523 16.1727 16.275 15.7636 16.5341 15.5505C16.6532 15.4534 16.8005 15.3973 16.954 15.3905C17.1076 15.3838 17.2592 15.4267 17.3864 15.513C17.6625 15.6835 17.9284 15.8744 18.1943 16.0636C18.4573 16.2425 18.7105 16.4354 18.9528 16.6414C19.066 16.7242 19.1468 16.8439 19.1814 16.9798C19.2159 17.1158 19.202 17.2595 19.142 17.3863ZM16.6943 13.2954C16.6839 13.2674 16.677 13.2382 16.6739 13.2085C16.665 13.0937 16.6479 12.9798 16.6227 12.8676C16.5726 12.6396 16.4433 12.4367 16.258 12.2948C16.1681 12.2313 16.0685 12.1829 15.9631 12.1516C15.8284 12.1141 15.6869 12.1244 15.554 12.092C15.4883 12.0803 15.4298 12.0431 15.3915 11.9885C15.3532 11.9339 15.338 11.8663 15.3494 11.8005C15.3618 11.7372 15.3968 11.6806 15.448 11.6413C15.4992 11.6021 15.5629 11.5829 15.6273 11.5874C16.408 11.6454 16.9909 12.0204 17.1409 12.8573C17.1565 12.935 17.1673 13.0136 17.1733 13.0926C17.1845 13.1631 17.1845 13.235 17.1733 13.3056C17.1639 13.3489 17.1416 13.3884 17.1093 13.4188C17.0771 13.4492 17.0364 13.4692 16.9926 13.4761H16.9551C16.8976 13.4797 16.8406 13.4639 16.7933 13.4311C16.746 13.3983 16.7111 13.3505 16.6943 13.2954ZM16.4455 11.1835C16.1827 11.06 15.9038 10.9745 15.617 10.9295C15.4909 10.909 15.3648 10.8971 15.2386 10.8801C15.2056 10.8784 15.1733 10.87 15.1437 10.8553C15.1141 10.8407 15.0879 10.8201 15.0666 10.7948C15.0453 10.7695 15.0295 10.7401 15.0201 10.7085C15.0107 10.6768 15.0079 10.6435 15.0119 10.6107C15.0122 10.5775 15.0194 10.5446 15.0332 10.5144C15.047 10.4841 15.067 10.4571 15.0919 10.435C15.1169 10.413 15.1461 10.3965 15.1779 10.3865C15.2096 10.3766 15.2431 10.3734 15.2761 10.3772C15.7766 10.3965 16.267 10.5245 16.7131 10.7522C17.2576 11.0259 17.7019 11.4643 17.983 12.0051C18.1411 12.3218 18.247 12.6619 18.2966 13.0124C18.3059 13.0581 18.3127 13.1042 18.317 13.1505C18.3256 13.2528 18.329 13.3534 18.3375 13.4812V13.5289C18.3363 13.5795 18.3294 13.6298 18.317 13.6789C18.302 13.7281 18.2721 13.7715 18.2315 13.8031C18.1909 13.8347 18.1416 13.8531 18.0902 13.8557C18.0388 13.8583 17.9878 13.845 17.9443 13.8177C17.9007 13.7903 17.8666 13.7502 17.8466 13.7028C17.8276 13.634 17.819 13.5628 17.821 13.4914C17.8248 13.1107 17.7493 12.7334 17.5994 12.3835C17.5655 12.3065 17.5273 12.2313 17.4852 12.1585C17.2408 11.7393 16.8795 11.4005 16.4455 11.1835ZM19.2614 14.3266C19.0909 14.3266 19.0074 14.1818 18.9955 14.0232C18.9733 13.7113 18.9562 13.3977 18.9136 13.0874C18.8397 12.5636 18.6574 12.0608 18.3784 11.6113C18.0914 11.1438 17.7095 10.7417 17.2573 10.431C16.8051 10.1204 16.2928 9.9081 15.7534 9.8079C15.508 9.76528 15.2574 9.75505 15.0102 9.72778C14.8534 9.71244 14.6472 9.70221 14.6131 9.50619C14.6085 9.46863 14.6119 9.43053 14.6231 9.39438C14.6342 9.35822 14.6529 9.32482 14.6778 9.29636C14.7027 9.26789 14.7334 9.245 14.7678 9.22917C14.8021 9.21334 14.8394 9.20493 14.8773 9.20449H15.0597C15.7947 9.2199 16.5149 9.41423 17.1579 9.77063C17.8009 10.127 18.3474 10.6348 18.75 11.2499C19.0726 11.7515 19.2917 12.3125 19.3943 12.8999C19.4591 13.2698 19.483 13.6482 19.5119 14.0232C19.5175 14.0599 19.5152 14.0974 19.5053 14.1332C19.4954 14.169 19.478 14.2023 19.4544 14.2309C19.4308 14.2595 19.4013 14.2828 19.3681 14.2993C19.3348 14.3158 19.2985 14.3251 19.2614 14.3266Z" fill="#232538"/>
<path d="M15 0C12.0333 0 9.13316 0.879735 6.66642 2.52796C4.19969 4.17618 2.2771 6.51886 1.14178 9.25975C0.0064688 12.0006 -0.290581 15.0166 0.288197 17.9264C0.866975 20.8361 2.29559 23.5088 4.39337 25.6066C6.49116 27.7044 9.16391 29.133 12.0736 29.7118C14.9833 30.2906 17.9993 29.9935 20.7402 28.8582C23.4811 27.7229 25.8238 25.8003 27.472 23.3336C29.1202 20.8668 30 17.9667 30 15C30 11.0218 28.4196 7.20644 25.6066 4.3934C22.7935 1.58035 18.9782 0 15 0V0ZM23.6642 17.579V17.5994C23.2278 19.3705 21.254 21.2676 19.442 21.6631H19.4216C17.9644 21.9436 16.4839 22.0857 15 22.0875C14.567 22.0875 14.1307 22.0739 13.6977 22.0483L11.6966 24.1295C11.5866 24.2426 11.4454 24.3204 11.291 24.3529C11.1367 24.3854 10.9761 24.3712 10.8299 24.3122C10.6836 24.2531 10.5582 24.1519 10.4697 24.0213C10.3812 23.8907 10.3336 23.7367 10.3329 23.579V21.6034C9.86284 21.4637 9.41555 21.2564 9.00509 20.9881C7.74713 20.1886 6.65623 18.8608 6.34259 17.5994V17.579C5.80226 15.126 5.80226 12.5848 6.34259 10.1318V10.1097C6.77895 8.34034 8.75111 6.44318 10.5682 6.04773H10.5886C13.5064 5.48864 16.5038 5.48864 19.4216 6.04773H19.442C20.4204 6.2608 21.4449 6.91193 22.2494 7.75227C22.9312 8.45966 23.463 9.30341 23.6642 10.1165V10.1386C24.2035 12.5894 24.2035 15.1282 23.6642 17.579Z" fill="#232538"/>
</svg>
